<svg width="113" height="108" viewBox="0 0 113 108" fill="none" xmlns="http://www.w3.org/2000/svg">
<g clip-path="url(#clip0)">
<path d="M34.6953 70.4903C34.6953 63.1734 28.7622 57.2206 21.4695 57.2206C14.1767 57.2206 8.24341 63.1734 8.24341 70.4903H16.2707C16.2707 67.6143 18.603 65.2746 21.4695 65.2746C24.336 65.2746 26.668 67.6143 26.668 70.4903H34.6953Z" fill="#D9CDAC"/>
<path d="M67.531 57.2203C60.2382 57.2203 54.3052 63.1731 54.3052 70.49H62.3325C62.3325 67.614 64.6645 65.2743 67.531 65.2743C70.3975 65.2743 72.7297 67.614 72.7297 70.49H80.7571C80.7571 63.1731 74.824 57.2203 67.531 57.2203V57.2203Z" fill="#D9CDAC"/>
<path d="M44.5001 94.0562C39.4251 94.0562 34.6666 91.3255 32.0809 86.9297L25.1675 91.0224C29.1898 97.8615 36.5976 102.11 44.4999 102.11C52.4021 102.11 59.8099 97.8615 63.8323 91.0224L56.9188 86.9294C54.3337 91.3253 49.5749 94.0562 44.5001 94.0562V94.0562Z" fill="#D9CDAC"/>
<path d="M107.777 56.2261C105.221 53.6641 102.01 51.9701 98.5257 51.3067C91.0004 27.975 69.1706 11.9109 44.5 11.9109H41.809C35.3466 11.9109 30.0891 6.63563 30.0891 0.1521H22.0618C22.0618 4.55178 23.5003 8.61951 25.9276 11.9109H23.3844C16.9221 11.9109 11.6646 6.63563 11.6646 0.1521H3.63723C3.63723 8.90284 9.3228 16.3415 17.1804 18.9575C4.75301 25.8124 -4.98764 37.237 -9.52548 51.3067C-13.0101 51.9701 -16.2212 53.6647 -18.7799 56.2291C-22.1461 59.61 -24 64.1026 -24 68.8794C-24 73.5974 -22.1859 78.0487 -18.8917 81.4137C-16.3171 84.0436 -13.0656 85.7789 -9.52548 86.4523C-2.00068 109.784 19.8291 125.848 44.5 125.848C69.1708 125.848 91.0004 109.784 98.5255 86.4523C102.066 85.7789 105.317 84.0436 107.892 81.4137C111.186 78.0487 113 73.5974 113 68.8794C113 64.1026 111.146 59.61 107.777 56.2261V56.2261ZM95.3631 78.711L92.3509 78.7683L91.5644 81.6862C85.8341 102.946 66.4806 117.794 44.4997 117.794C22.5188 117.794 3.16558 102.946 -2.56439 81.6862L-3.35093 78.7683L-6.36307 78.711C-11.662 78.6105 -15.973 74.2002 -15.973 68.8794C-15.973 66.2522 -14.953 63.781 -13.1043 61.924C-11.3014 60.1169 -8.90735 59.0953 -6.36388 59.0475L-3.3512 58.9907L-2.56466 56.0723C3.16558 34.8131 22.5191 19.9651 44.5 19.9651C51.7549 19.9651 57.657 25.8868 57.657 33.1658C57.657 40.4447 51.7549 46.3667 44.5 46.3667C37.2451 46.3667 31.343 40.445 31.343 33.166H23.3156C23.3156 44.8859 32.8188 54.4207 44.5 54.4207C56.1811 54.4207 65.6844 44.8859 65.6844 33.166C65.6844 29.8307 64.9127 26.6738 63.5421 23.8617C77.0054 29.6074 87.5794 41.2887 91.5644 56.0726L92.3509 58.9909L95.3636 59.0477C97.9073 59.0955 100.301 60.1172 102.101 61.921C103.953 63.7813 104.973 66.2525 104.973 68.8796C104.973 74.2005 100.662 78.6108 95.3631 78.711V78.711Z" fill="#D9CDAC"/>
</g>
<defs>
<clipPath id="clip0">
<path d="M0 0H113V108H32C14.3269 108 0 93.6731 0 76V0Z" fill="white"/>
</clipPath>
</defs>
</svg>
