<svg width="1280" height="16" viewBox="0 0 1280 16" fill="none" xmlns="http://www.w3.org/2000/svg">
<g clip-path="url(#clip0)">
<path d="M889.097 2.29985C879.235 2.59985 862.275 2.09985 865.042 1.19985L862.997 0.599854C871.537 0.699854 906.658 0.699853 889.097 2.29985Z" fill="#E6F9FF"/>
<path d="M891.503 6.4C882.963 6.1 889.458 5.8 891.022 5.5L902.809 5.6C906.297 6 896.434 6.2 891.503 6.4Z" fill="white"/>
<path d="M886.572 14.9998L890.06 15.1998C886.572 14.9998 881.52 14.8998 878.152 14.8998C877.912 14.3998 884.286 13.9998 891.142 14.1998C889.579 14.5998 882.963 14.5998 886.572 14.9998Z" fill="#E6F9FF"/>
<path d="M715.416 5.59992C712.89 6.99992 724.076 8.99992 738.269 10.2999L732.977 12.5999C722.272 11.4999 700.862 12.0999 684.144 12.1999C677.769 12.6999 699.66 12.9999 683.182 13.4999C681.377 13.1999 682.701 12.5999 679.212 12.3999C664.539 12.9999 672.236 14.7999 640.242 14.2999L629.538 13.1999C574.33 13.1999 516.958 15.0999 464.396 13.9999C455.015 15.1999 428.073 14.7999 411.715 15.4999L411.354 14.7999C401.972 15.9999 386.096 14.4999 374.429 14.6999L363.964 13.9999C359.995 12.8999 393.793 13.4999 384.412 11.7999C362.16 10.7999 346.885 13.3999 327.761 12.1999C309.238 11.8999 311.283 12.6999 299.856 13.0999C296.849 13.7999 303.585 13.7999 302.382 14.5999C260.766 15.0999 258.721 11.3999 222.157 11.6999C220.834 12.2999 191.606 13.6999 218.789 14.5999L231.779 13.8999L240.559 14.6999C230.576 14.6999 212.054 14.6999 214.219 15.4999C200.988 12.8999 145.42 17.9999 173.204 13.9999C190.283 14.5999 195.215 14.4999 206.401 13.4999C167.791 13.2999 133.753 12.1999 101.879 12.1999L92.4975 13.3999C91.7758 12.2999 76.3803 11.4999 61.105 11.1999C54.7303 11.0999 46.3108 10.9999 48.3556 11.5999C45.3486 12.2999 103.804 11.9999 76.5006 13.9999C41.1389 13.5999 3.7325 12.4999 -19 10.8999C-2.40167 10.5999 9.50583 10.8999 26.9461 9.39992C86.243 7.79992 150.471 8.99992 207.964 7.19992C210.129 7.99992 225.284 8.29992 220.714 9.09992C226.006 9.69992 240.8 8.99992 244.769 10.1999C289.272 9.09992 341.473 9.69992 381.645 9.79992C370.459 7.79992 405.941 8.49992 417.127 7.59992C427.712 8.49992 445.874 8.09992 459.224 8.09992C460.668 7.79992 468.967 7.59992 466.922 7.09992C457.059 7.39992 453.451 6.89992 443.348 6.69992C447.437 5.19992 465.118 6.79992 480.153 6.79992L472.214 7.59992C497.352 7.59992 527.181 10.1999 549.794 8.79992L530.549 7.39992C558.574 6.79992 593.214 8.69992 613.902 6.89992C595.138 6.39992 564.107 7.49992 564.588 5.49992C565.67 4.49992 587.441 4.49992 597.664 4.99992C642.648 6.89992 677.047 2.69992 715.416 5.59992Z" fill="#E6F9FF"/>
<path d="M654.916 2.1999C618.232 2.2999 636.514 4.9999 601.272 4.6999C605.723 3.6999 588.523 2.7999 576.736 2.6999C565.43 3.2999 551.718 2.8999 541.735 2.8999C534.879 2.6999 535.841 1.3999 549.192 1.3999C582.148 3.4999 623.764 0.199903 654.916 2.1999Z" fill="#E6F9FF"/>
<path d="M686.67 7.89982C668.387 8.09982 675.364 5.59982 657.322 6.29982C664.899 4.99982 667.305 6.29982 684.024 6.19982L674.401 6.89982L686.67 7.89982Z" fill="white"/>
<path d="M537.646 4.6999C525.979 4.7999 498.916 4.1999 498.074 2.8999C496.39 2.7999 499.277 2.0999 492.782 2.2999C503.126 2.6999 533.316 2.8999 537.646 4.6999Z" fill="#E6F9FF"/>
<path d="M589.365 10.1C582.87 10.3 576.134 10.4 566.151 10.4C572.646 10.2 580.585 9.59997 589.365 10.1Z" fill="white"/>
<path d="M522.37 7.19985C524.656 8.19985 512.507 7.49985 509.14 7.49985L502.164 7.09985C508.779 6.79985 517.078 6.69985 522.37 7.19985Z" fill="#E6F9FF"/>
<path d="M421.938 4.19985C404.979 3.79985 439.619 2.89985 419.412 2.69985L431.079 2.59985L435.409 4.19985H421.938Z" fill="#E6F9FF"/>
<path d="M396.079 2.79994C391.268 3.19994 386.336 3.29994 377.796 2.99994L382.487 2.39994C385.614 2.09994 389.463 2.79994 396.079 2.79994Z" fill="#E6F9FF"/>
<path d="M418.21 6.40002C410.031 6.80002 411.233 6.00002 406.062 5.60002C409.189 5.10002 426.509 6.20002 418.21 6.40002Z" fill="#E6F9FF"/>
<path d="M336.782 15.9999C344.359 14.6999 359.875 15.4999 374.669 15.0999C359.995 15.3999 353.621 16.0999 336.782 15.9999Z" fill="#E6F9FF"/>
<path d="M1010.58 1.0999C1017.55 1.4999 1025.61 1.1999 1030.42 0.799902L1026.82 0.399902L1010.58 1.0999Z" fill="#E6F9FF"/>
<path d="M909.785 0.499839C902.328 1.99984 915.318 1.29984 929.27 2.39984C947.793 2.69984 967.158 1.49984 985.68 1.59984L996.866 0.799839C974.855 0.199839 936.126 -0.300161 909.785 0.499839Z" fill="#E6F9FF"/>
<path d="M895.712 7.89985C909.424 8.49985 927.225 7.49985 937.208 7.39985C920.369 7.19985 898.599 7.19985 886.812 7.09985C885.489 7.49985 892.345 7.69985 895.712 7.89985Z" fill="white"/>
<path d="M1189.07 0.299902C1165.74 0.399902 1133.26 -0.800098 1107.64 1.0999C1119.55 1.3999 1119.79 1.8999 1138.31 2.1999C1124.36 4.1999 1109.69 1.8999 1093.09 1.9999C1106.68 2.3999 1088.88 3.2999 1077.21 3.3999C1055.08 2.7999 1020.08 2.9999 990.01 3.0999C977.02 3.7999 934.562 2.6999 940.696 4.5999C922.414 4.7999 919.888 3.2999 906.176 2.8999C865.643 5.1999 833.529 -1.2001 789.988 1.4999C792.634 0.399902 770.984 0.499902 762.565 0.399902C744.162 0.299902 700.622 0.199902 710.244 2.3999C722.753 3.8999 748.131 1.4999 767.376 2.8999C800.452 5.1999 732.736 3.7999 732.255 5.6999C737.066 5.2999 739.712 7.0999 754.386 6.3999C723.114 7.2999 767.376 8.4999 751.259 9.6999C787.102 10.8999 783.734 10.8999 801.896 13.2999C823.425 12.8999 817.411 11.1999 823.546 10.2999C846.398 9.2999 864.44 11.5999 884.166 10.9999C869.131 13.9999 917.242 13.2999 940.696 13.1999C970.886 13.2999 950.92 10.4999 982.793 10.7999C998.67 12.1999 950.439 12.6999 971.367 14.2999L986.041 13.6999C995.423 12.4999 1002.88 10.9999 1014.07 10.1999C1020.8 10.1999 1030.78 10.1999 1031.02 10.5999C1017.91 11.0999 1021.88 12.1999 1035.72 12.8999C1042.09 12.3999 1043.77 12.2999 1046.78 11.7999C1019.84 8.5999 1075.17 11.5999 1094.05 9.6999C1149.38 6.9999 1123.04 13.4999 1177.4 12.0999C1160.68 9.2999 1213.37 10.5999 1231.17 9.5999C1246.2 9.6999 1251.73 10.4999 1262.32 11.2999C1266.41 10.9999 1278.08 10.7999 1279.88 10.2999C1271.46 6.4999 1236.46 2.9999 1191.11 -0.100098C1190.03 0.0999023 1188.95 0.199902 1189.07 0.299902Z" fill="#E6F9FF"/>
</g>
<defs>
<clipPath id="clip0">
<rect width="1281" height="16" fill="white" transform="translate(-1)"/>
</clipPath>
</defs>
</svg>
