<svg width="1280" height="16" viewBox="0 0 1280 16" fill="none" xmlns="http://www.w3.org/2000/svg">
<g clip-path="url(#clip0)">
<path d="M894.815 2.30001C885.096 2.60001 868.385 2.10001 871.111 1.20001L869.096 0.600006C877.511 0.700006 912.118 0.700006 894.815 2.30001Z" fill="#E6F9FF"/>
<path d="M897.185 6.4C888.771 6.1 895.171 5.8 896.711 5.5L908.326 5.6C911.763 6 902.045 6.2 897.185 6.4Z" fill="white"/>
<path d="M892.326 15L895.763 15.2C892.326 15 887.348 14.9 884.029 14.9C883.792 14.4 890.074 14 896.829 14.2C895.289 14.6 888.77 14.6 892.326 15Z" fill="#E6F9FF"/>
<path d="M723.674 5.59998C721.185 6.99998 732.207 8.99998 746.193 10.3L740.978 12.6C730.43 11.5 709.333 12.1 692.859 12.2C686.578 12.7 708.148 13 691.911 13.5C690.133 13.2 691.437 12.6 688 12.4C673.541 13 681.126 14.8 649.6 14.3L639.052 13.2C584.652 13.2 528.119 15.1 476.326 14C467.081 15.2 440.533 14.8 424.415 15.5L424.059 14.8C414.815 16 399.17 14.5 387.674 14.7L377.363 14C373.452 12.9 406.756 13.5 397.511 11.8C375.585 10.8 360.533 13.4 341.689 12.2C323.437 11.9 325.452 12.7 314.193 13.1C311.23 13.8 317.867 13.8 316.681 14.6C275.674 15.1 273.659 11.4 237.63 11.7C236.326 12.3 207.526 13.7 234.311 14.6L247.111 13.9L255.763 14.7C245.926 14.7 227.674 14.7 229.807 15.5C216.77 12.9 162.015 18 189.393 14C206.222 14.6 211.081 14.5 222.104 13.5C184.059 13.3 150.519 12.2 119.111 12.2L109.867 13.4C109.156 12.3 93.9852 11.5 78.9333 11.2C72.6518 11.1 64.3556 11 66.3704 11.6C63.4074 12.3 121.007 12 94.1037 14C59.2593 13.6 22.4 12.5 0 10.9C16.3556 10.6 28.0889 10.9 45.2741 9.39998C103.704 7.79998 166.993 8.99998 223.644 7.19998C225.778 7.99998 240.711 8.29998 236.207 9.09998C241.422 9.69998 256 8.99998 259.911 10.2C303.763 9.09998 355.2 9.69998 394.785 9.79998C383.763 7.79998 418.726 8.49998 429.748 7.59998C440.178 8.49998 458.074 8.09998 471.23 8.09998C472.652 7.79998 480.83 7.59998 478.815 7.09998C469.096 7.39998 465.541 6.89998 455.585 6.69998C459.615 5.19998 477.037 6.79998 491.852 6.79998L484.03 7.59998C508.8 7.59998 538.193 10.2 560.474 8.79998L541.511 7.39998C569.126 6.79998 603.259 8.69998 623.644 6.89998C605.156 6.39998 574.578 7.49998 575.052 5.49998C576.119 4.49998 597.57 4.49998 607.644 4.99998C651.97 6.89998 685.867 2.69998 723.674 5.59998Z" fill="#E6F9FF"/>
<path d="M664.059 2.19999C627.911 2.29999 645.926 4.99999 611.2 4.69999C615.585 3.69999 598.637 2.79999 587.022 2.69999C575.881 3.29999 562.37 2.89999 552.533 2.89999C545.778 2.69999 546.726 1.39999 559.881 1.39999C592.356 3.49999 633.363 0.199994 664.059 2.19999Z" fill="#E6F9FF"/>
<path d="M695.348 7.9C677.333 8.1 684.208 5.6 666.43 6.3C673.896 5 676.267 6.3 692.741 6.2L683.259 6.9L695.348 7.9Z" fill="white"/>
<path d="M548.504 4.7C537.007 4.8 510.341 4.2 509.511 2.9C507.852 2.8 510.696 2.1 504.296 2.3C514.489 2.7 544.237 2.9 548.504 4.7Z" fill="#E6F9FF"/>
<path d="M599.467 10.1C593.067 10.3 586.43 10.4 576.593 10.4C582.993 10.2 590.815 9.6 599.467 10.1Z" fill="white"/>
<path d="M533.452 7.20001C535.704 8.20001 523.733 7.50001 520.415 7.50001L513.541 7.10001C520.059 6.80001 528.237 6.70001 533.452 7.20001Z" fill="#E6F9FF"/>
<path d="M434.489 4.20001C417.778 3.80001 451.911 2.90001 432 2.70001L443.496 2.60001L447.763 4.20001H434.489Z" fill="#E6F9FF"/>
<path d="M409.008 2.8C404.267 3.2 399.407 3.3 390.993 3L395.615 2.4C398.696 2.1 402.489 2.8 409.008 2.8Z" fill="#E6F9FF"/>
<path d="M430.815 6.39999C422.756 6.79999 423.941 5.99999 418.844 5.59999C421.926 5.09999 438.993 6.19999 430.815 6.39999Z" fill="#E6F9FF"/>
<path d="M350.578 16C358.044 14.7 373.333 15.5 387.911 15.1C373.452 15.4 367.17 16.1 350.578 16Z" fill="#E6F9FF"/>
<path d="M1014.52 1.09999C1021.39 1.49999 1029.33 1.19999 1034.07 0.799994L1030.52 0.399994L1014.52 1.09999Z" fill="#E6F9FF"/>
<path d="M915.2 0.499992C907.852 1.99999 920.652 1.29999 934.4 2.39999C952.652 2.69999 971.733 1.49999 989.985 1.59999L1001.01 0.799992C979.319 0.199992 941.156 -0.300008 915.2 0.499992Z" fill="#E6F9FF"/>
<path d="M901.333 7.90001C914.844 8.50001 932.385 7.50001 942.222 7.40001C925.63 7.20001 904.178 7.20001 892.563 7.10001C891.259 7.50001 898.015 7.70001 901.333 7.90001Z" fill="white"/>
<path d="M1190.4 0.299994C1167.41 0.399994 1135.41 -0.800006 1110.16 1.09999C1121.9 1.39999 1122.13 1.89999 1140.39 2.19999C1126.64 4.19999 1112.18 1.89999 1095.82 1.99999C1109.21 2.39999 1091.67 3.29999 1080.18 3.39999C1058.37 2.79999 1023.88 2.99999 994.252 3.09999C981.452 3.79999 939.615 2.69999 945.659 4.59999C927.645 4.79999 925.156 3.29999 911.645 2.89999C871.704 5.19999 840.059 -1.20001 797.156 1.49999C799.763 0.399994 778.43 0.499994 770.133 0.399994C752 0.299994 709.096 0.199994 718.578 2.39999C730.904 3.89999 755.911 1.49999 774.874 2.89999C807.467 5.19999 740.741 3.79999 740.267 5.69999C745.008 5.29999 747.615 7.09999 762.074 6.39999C731.259 7.29999 774.874 8.49999 758.993 9.69999C794.311 10.9 790.993 10.9 808.889 13.3C830.104 12.9 824.178 11.2 830.222 10.3C852.741 9.29999 870.519 11.6 889.956 11C875.141 14 922.548 13.3 945.659 13.2C975.408 13.3 955.734 10.5 987.141 10.8C1002.79 12.2 955.259 12.7 975.882 14.3L990.341 13.7C999.585 12.5 1006.93 11 1017.96 10.2C1024.59 10.2 1034.43 10.2 1034.67 10.6C1021.75 11.1 1025.66 12.2 1039.29 12.9C1045.57 12.4 1047.23 12.3 1050.19 11.8C1023.64 8.59999 1078.16 11.6 1096.77 9.69999C1151.29 6.99999 1125.33 13.5 1178.9 12.1C1162.43 9.29999 1214.34 10.6 1231.88 9.59999C1246.7 9.7 1252.15 10.5 1262.58 11.3C1266.61 11 1278.1 10.8 1279.88 10.3C1271.59 6.49999 1237.1 2.99999 1192.41 -0.100006C1191.35 0.0999939 1190.28 0.199994 1190.4 0.299994Z" fill="#E6F9FF"/>
</g>
<defs>
<clipPath id="clip0">
<rect width="1280" height="16" fill="white"/>
</clipPath>
</defs>
</svg>
