<svg width="14" height="14" viewBox="0 0 14 14" fill="none" xmlns="http://www.w3.org/2000/svg">
<path d="M0.500244 3.5H1.00024H0.500244ZM0.500244 11.5H0.00024417H0.500244ZM11.5002 13.5V13V13.5ZM2.50024 13.5V14V13.5ZM13.5002 3.50002H13.0002H13.5002ZM13.5002 11.5H14.0002H13.5002ZM11.5002 1.50002L11.5002 2.00002L11.5002 1.50002ZM2.50025 1.5L2.50025 1L2.50025 1.5ZM13.5002 5.5C13.7764 5.5 14.0002 5.27614 14.0002 5C14.0002 4.72386 13.7764 4.5 13.5002 4.5V5.5ZM0.500244 4.5C0.224102 4.5 0.000244468 4.72386 0.000244468 5C0.000244468 5.27614 0.224102 5.5 0.500244 5.5V4.5ZM3.50024 2.5C3.50024 2.77614 3.7241 3 4.00024 3C4.27639 3 4.50024 2.77614 4.50024 2.5H3.50024ZM4.50024 0.5C4.50024 0.223858 4.27639 2.98023e-08 4.00024 2.98023e-08C3.7241 2.98023e-08 3.50024 0.223858 3.50024 0.5H4.50024ZM9.50024 2.5C9.50024 2.77614 9.7241 3 10.0002 3C10.2764 3 10.5002 2.77614 10.5002 2.5L9.50024 2.5ZM10.5002 0.5C10.5002 0.223857 10.2764 -1.19209e-07 10.0002 2.98023e-08C9.7241 1.49012e-07 9.50024 0.223858 9.50024 0.5L10.5002 0.5ZM0.000244528 3.5L0.00024417 11.5H1.00024L1.00024 3.5H0.000244528ZM11.5002 13L2.50024 13V14L11.5002 14V13ZM13.0002 3.50002V11.5H14.0002V3.50002H13.0002ZM11.5002 1.00002L2.50025 1L2.50025 2L11.5002 2.00002L11.5002 1.00002ZM14.0002 3.50002C14.0002 2.11931 12.881 1.00002 11.5002 1.00002L11.5002 2.00002C12.3287 2.00002 13.0002 2.6716 13.0002 3.50002H14.0002ZM1.00024 3.5C1.00024 2.67158 1.67182 2 2.50025 2L2.50025 1C1.11954 1 0.000244588 2.11929 0.000244528 3.5H1.00024ZM0.00024417 11.5C0.000244081 12.8807 1.11953 14 2.50024 14V13C1.67182 13 1.00024 12.3284 1.00024 11.5H0.00024417ZM11.5002 14C12.881 14 14.0002 12.8807 14.0002 11.5H13.0002C13.0002 12.3284 12.3287 13 11.5002 13V14ZM13.5002 4.5H0.500244V5.5H13.5002V4.5ZM4.50024 2.5V0.5H3.50024V2.5H4.50024ZM10.5002 2.5L10.5002 0.5L9.50024 0.5L9.50024 2.5L10.5002 2.5Z" fill="#001B2D"/>
</svg>
