<svg width="1280" height="16" viewBox="0 0 1280 16" fill="none" xmlns="http://www.w3.org/2000/svg">
<g clip-path="url(#clip0)">
<path d="M385.185 13.6999C394.904 13.3999 411.615 13.8999 408.889 14.7999L410.904 15.3999C402.489 15.2999 367.882 15.2999 385.185 13.6999Z" fill="#001B2D"/>
<path d="M382.815 9.6C391.23 9.9 384.83 10.2 383.289 10.5L371.674 10.4C368.237 10 377.956 9.8 382.815 9.6Z" fill="white"/>
<path d="M387.674 0.999943L384.237 0.799943C387.674 0.999943 392.652 1.09994 395.97 1.09994C396.207 1.59994 389.926 1.99994 383.17 1.79994C384.711 1.39994 391.23 1.39994 387.674 0.999943Z" fill="#001B2D"/>
<path d="M556.326 10.4003C558.815 9.00033 547.793 7.00033 533.807 5.70033L539.022 3.40033C549.57 4.50033 570.667 3.90033 587.141 3.80033C593.422 3.30033 571.852 3.00033 588.089 2.50033C589.867 2.80033 588.563 3.40033 592 3.60033C606.459 3.00033 598.874 1.20033 630.4 1.70033L640.948 2.80033C695.348 2.80033 751.881 0.900327 803.674 2.00033C812.919 0.800327 839.467 1.20033 855.585 0.500327L855.941 1.20033C865.185 0.00032711 880.83 1.50033 892.326 1.30033L902.637 2.00033C906.548 3.10033 873.244 2.50033 882.489 4.20033C904.415 5.20033 919.467 2.60033 938.311 3.80033C956.563 4.10033 954.548 3.30033 965.807 2.90033C968.77 2.20033 962.133 2.20033 963.319 1.40033C1004.33 0.900327 1006.34 4.60033 1042.37 4.30033C1043.67 3.70033 1072.47 2.30033 1045.69 1.40033L1032.89 2.10033L1024.24 1.30033C1034.07 1.30033 1052.33 1.30033 1050.19 0.500327C1063.23 3.10033 1117.99 -1.99967 1090.61 2.00033C1073.78 1.40033 1068.92 1.50033 1057.9 2.50033C1095.94 2.70033 1129.48 3.80033 1160.89 3.80033L1170.13 2.60033C1170.84 3.70033 1186.01 4.50033 1201.07 4.80033C1207.35 4.90033 1215.64 5.00033 1213.63 4.40033C1216.59 3.70033 1158.99 4.00033 1185.9 2.00033C1220.74 2.40033 1257.6 3.50033 1280 5.10033C1263.64 5.40033 1251.91 5.10033 1234.73 6.60033C1176.3 8.20033 1113.01 7.00033 1056.36 8.80033C1054.22 8.00033 1039.29 7.70033 1043.79 6.90033C1038.58 6.30033 1024 7.00033 1020.09 5.80033C976.237 6.90033 924.8 6.30033 885.215 6.20033C896.237 8.20033 861.274 7.50033 850.252 8.40033C839.822 7.50033 821.926 7.90033 808.77 7.90033C807.348 8.20033 799.17 8.40033 801.185 8.90033C810.904 8.60033 814.459 9.10033 824.415 9.30033C820.385 10.8003 802.963 9.20033 788.148 9.20033L795.97 8.40033C771.2 8.40033 741.807 5.80033 719.526 7.20033L738.489 8.60033C710.874 9.20033 676.741 7.30033 656.356 9.10033C674.844 9.60033 705.422 8.50033 704.948 10.5003C703.881 11.5003 682.43 11.5003 672.356 11.0003C628.03 9.10033 594.133 13.3003 556.326 10.4003Z" fill="#001B2D"/>
<path d="M615.941 13.8001C652.089 13.7001 634.074 11.0001 668.8 11.3001C664.415 12.3001 681.363 13.2001 692.978 13.3001C704.119 12.7001 717.63 13.1001 727.467 13.1001C734.222 13.3001 733.274 14.6001 720.119 14.6001C687.645 12.5001 646.637 15.8001 615.941 13.8001Z" fill="#001B2D"/>
<path d="M584.652 8.10018C602.667 7.90018 595.793 10.4002 613.571 9.70018C606.104 11.0002 603.733 9.70018 587.259 9.80018L596.741 9.10018L584.652 8.10018Z" fill="white"/>
<path d="M731.496 11.3001C742.993 11.2001 769.659 11.8001 770.489 13.1001C772.148 13.2001 769.304 13.9001 775.704 13.7001C765.511 13.3001 735.763 13.1001 731.496 11.3001Z" fill="#001B2D"/>
<path d="M680.534 5.90003C686.934 5.70003 693.571 5.60003 703.408 5.60003C697.008 5.80003 689.185 6.40003 680.534 5.90003Z" fill="white"/>
<path d="M746.548 8.80137C744.296 7.80137 756.266 8.50137 759.585 8.50137L766.459 8.90137C759.94 9.20137 751.763 9.30137 746.548 8.80137Z" fill="#001B2D"/>
<path d="M845.511 11.7999C862.222 12.1999 828.089 13.0999 848 13.2999L836.504 13.3999L832.237 11.7999H845.511Z" fill="#001B2D"/>
<path d="M870.992 13.2001C875.733 12.8001 880.593 12.7001 889.007 13.0001L884.385 13.6001C881.304 13.9001 877.511 13.2001 870.992 13.2001Z" fill="#001B2D"/>
<path d="M849.185 9.60022C857.245 9.20022 856.059 10.0002 861.156 10.4002C858.074 10.9002 841.008 9.80022 849.185 9.60022Z" fill="#001B2D"/>
<path d="M929.422 0.000390589C921.956 1.30039 906.667 0.50039 892.089 0.900391C906.548 0.60039 912.83 -0.0996095 929.422 0.000390589Z" fill="#001B2D"/>
<path d="M265.481 14.9001C258.607 14.5001 250.667 14.8001 245.926 15.2001L249.482 15.6001L265.481 14.9001Z" fill="#001B2D"/>
<path d="M364.8 15.5002C372.148 14.0002 359.348 14.7002 345.6 13.6002C327.348 13.3002 308.267 14.5002 290.015 14.4002L278.993 15.2002C300.682 15.8002 338.844 16.3002 364.8 15.5002Z" fill="#001B2D"/>
<path d="M378.667 8.10039C365.156 7.50039 347.615 8.50039 337.778 8.60039C354.37 8.80039 375.822 8.80039 387.437 8.90039C388.741 8.50039 381.985 8.30039 378.667 8.10039Z" fill="white"/>
<path d="M89.6002 15.7001C112.593 15.6001 144.593 16.8001 169.837 14.9001C158.104 14.6001 157.867 14.1001 139.615 13.8001C153.363 11.8001 167.822 14.1001 184.178 14.0001C170.785 13.6001 188.326 12.7001 199.822 12.6001C221.63 13.2001 256.119 13.0001 285.748 12.9001C298.548 12.2001 340.385 13.3001 334.341 11.4001C352.356 11.2001 354.845 12.7001 368.356 13.1001C408.296 10.8001 439.941 17.2001 482.845 14.5001C480.237 15.6001 501.57 15.5001 509.867 15.6001C528 15.7001 570.904 15.8001 561.422 13.6001C549.096 12.1001 524.089 14.5001 505.126 13.1001C472.533 10.8001 539.259 12.2001 539.733 10.3001C534.993 10.7001 532.385 8.9001 517.926 9.6001C548.741 8.7001 505.126 7.5001 521.007 6.3001C485.689 5.1001 489.007 5.1001 471.111 2.7001C449.896 3.1001 455.822 4.8001 449.778 5.7001C427.259 6.7001 409.482 4.4001 390.045 5.0001C404.859 2.0001 357.452 2.7001 334.341 2.8001C304.593 2.7001 324.267 5.5001 292.859 5.2001C277.215 3.8001 324.741 3.3001 304.119 1.7001L289.659 2.3001C280.415 3.5001 273.067 5.0001 262.045 5.8001C255.408 5.8001 245.571 5.8001 245.333 5.4001C258.252 4.9001 254.341 3.8001 240.711 3.1001C234.43 3.6001 232.771 3.7001 229.808 4.2001C256.356 7.4001 201.837 4.4001 183.23 6.3001C128.711 9.0001 154.667 2.5001 101.096 3.9001C117.571 6.7001 65.6595 5.4001 48.1187 6.4001C33.3039 6.3001 27.8521 5.5001 17.4224 4.7001C13.3928 5.0001 1.89648 5.2001 0.118713 5.7001C8.41504 9.5001 42.904 13.0001 87.5854 16.1001C88.6521 15.9001 89.7187 15.8001 89.6002 15.7001Z" fill="#001B2D"/>
</g>
<defs>
<clipPath id="clip0">
<rect width="1280" height="16" fill="white" transform="translate(1280 16) rotate(-180)"/>
</clipPath>
</defs>
</svg>
