<svg width="18" height="18" viewBox="0 0 18 18" fill="none" xmlns="http://www.w3.org/2000/svg">
<path d="M7.34065 0C5.22896 0 3.41895 1.6976 3.41895 3.89449V9.886C3.41895 10.8846 3.82117 11.7833 4.42451 12.4823L9.05011 17.4753C9.45233 17.8747 10.0557 18.0744 10.5585 17.9746L11.3629 17.7748C12.1674 17.5751 12.8713 16.976 13.1729 16.1771C13.4746 15.3782 13.4746 14.4795 13.0724 13.7805L12.2679 12.2826H14.8824C16.5918 12.2826 17.9996 10.8846 17.9996 9.18699C17.9996 8.98728 17.9996 8.6877 17.8991 8.48798L16.6924 2.8959C16.1896 1.1983 14.6813 0 12.9718 0H7.34065ZM10.3573 15.8775L5.93286 11.0843C5.63119 10.6849 5.43007 10.2854 5.43007 9.78615V3.79463C5.43007 2.79604 6.23453 1.89731 7.34065 1.89731H13.0724C13.8768 1.89731 14.6813 2.49647 14.8824 3.29534L16.0891 8.88742C16.0891 8.98728 16.0891 9.08714 16.0891 9.18699C16.0891 9.78615 15.5863 10.2854 14.9829 10.2854H11.564C10.9607 10.2854 10.4579 10.585 10.1562 11.0843C9.85456 11.5836 9.85456 12.1828 10.1562 12.682L11.3629 14.7791C11.4635 14.9788 11.4635 15.1785 11.3629 15.3782C11.2624 15.5779 11.0612 15.7777 10.8601 15.7777L10.3573 15.8775Z" fill="white"/>
<path d="M1.00556 11.9832C0.402226 11.9832 0 11.4839 0 10.9846V1.99729C0 1.39814 0.402226 0.998707 1.00556 0.998707C1.6089 0.998707 2.01113 1.39814 2.01113 1.99729V10.9846C2.01113 11.4839 1.6089 11.9832 1.00556 11.9832Z" fill="white"/>
</svg>
