<svg width="91" height="108" viewBox="0 0 91 108" fill="none" xmlns="http://www.w3.org/2000/svg">
<g clip-path="url(#clip0)">
<path d="M26.2031 22.6562H39.7969C41.6737 22.6562 43.1953 21.1347 43.1953 19.2578C43.1953 17.381 41.6737 15.8594 39.7969 15.8594H26.2031C24.3263 15.8594 22.8047 17.381 22.8047 19.2578C22.8047 21.1347 24.3263 22.6562 26.2031 22.6562Z" fill="#83C4BC"/>
<path d="M19.4062 36.25H46.5938C48.4706 36.25 49.9922 34.7284 49.9922 32.8516C49.9922 30.9747 48.4706 29.4531 46.5938 29.4531H19.4062C17.5294 29.4531 16.0078 30.9747 16.0078 32.8516C16.0078 34.7284 17.5294 36.25 19.4062 36.25Z" fill="#83C4BC"/>
<path d="M38.5269 92.8644C35.4794 95.9116 30.5211 95.9116 27.4736 92.8644C26.1466 91.5372 23.9947 91.5372 22.6675 92.8644C21.3403 94.1916 21.3403 96.3432 22.6675 97.6704C25.5163 100.519 29.2582 101.944 33.0001 101.944C36.742 101.944 40.4842 100.519 43.3327 97.6704C44.6599 96.3432 44.6599 94.1916 43.3327 92.8644C42.0058 91.5372 39.8539 91.5372 38.5269 92.8644Z" fill="#83C4BC"/>
<path d="M42.0625 75.8984C40.1857 75.8984 38.6641 77.42 38.6641 79.2969C38.6641 81.1737 40.1857 82.6953 42.0625 82.6953C47.0534 82.6953 51.2754 86.2668 52.1015 91.1875C52.3802 92.8483 53.8193 94.0241 55.4489 94.0241C55.6356 94.0241 55.825 94.0087 56.0154 93.9768C57.8664 93.6661 59.1152 91.9139 58.8046 90.0627C57.4271 81.8552 50.386 75.8984 42.0625 75.8984Z" fill="#83C4BC"/>
<path d="M27.3359 79.2969C27.3359 77.42 25.8143 75.8984 23.9374 75.8984C15.6137 75.8984 8.57286 81.8552 7.19559 90.0627C6.88497 91.9137 8.13378 93.6661 9.9848 93.9765C10.1753 94.0085 10.3643 94.0239 10.5512 94.0239C12.1806 94.0239 13.62 92.8478 13.8987 91.1873C14.7245 86.2668 18.9463 82.6953 23.9374 82.6953C25.8143 82.6953 27.3359 81.1737 27.3359 79.2969Z" fill="#83C4BC"/>
<path d="M60.1875 9.0625H58.9999C51.8495 3.39164 42.8138 0 33 0C23.1862 0 14.1505 3.39164 7.00014 9.0625H5.8125C-11.0526 9.0625 -24.7734 22.7833 -24.7734 39.6484V61.1719C-24.7734 69.9167 -17.6589 77.0312 -8.91406 77.0312V83.1484C-8.91406 101.263 5.82315 116 23.9375 116H42.0625C60.1768 116 74.9141 101.263 74.9141 83.1484V77.0312C83.6591 77.0312 90.7734 69.9167 90.7734 61.1719V39.6484C90.7734 22.7833 77.0526 9.0625 60.1875 9.0625ZM83.9766 39.6484V48.1681C81.4055 46.371 78.2819 45.3125 74.9141 45.3125V41.9141C74.9141 32.4564 71.7639 23.7215 66.4599 16.7001C76.5435 19.4595 83.9766 28.7016 83.9766 39.6484ZM68.1172 41.9141V46.7233L64.9743 48.4912C63.6569 45.934 60.9913 44.1797 57.9219 44.1797H43.1953C39.4063 44.1797 36.231 46.8518 35.451 50.4102H30.5493C29.769 46.8518 26.5937 44.1797 22.8047 44.1797H8.07812C5.00888 44.1797 2.34315 45.9337 1.02569 48.4912L-2.11719 46.7233V41.9141C-2.11719 22.5504 13.6364 6.79688 33 6.79688C52.3638 6.79688 68.1172 22.5504 68.1172 41.9141ZM59.0547 52.1094V53.8086C59.0547 58.4935 55.2435 62.3047 50.5586 62.3047C45.8737 62.3047 42.0625 58.4935 42.0625 53.8086V52.1094C42.0625 51.4847 42.5707 50.9766 43.1953 50.9766H57.9219C58.5465 50.9766 59.0547 51.4847 59.0547 52.1094ZM23.9375 52.1094V53.8086C23.9375 58.4935 20.1263 62.3047 15.4414 62.3047C10.7565 62.3047 6.94531 58.4935 6.94531 53.8086V52.1094C6.94531 51.4847 7.45349 50.9766 8.07812 50.9766H22.8047C23.4293 50.9766 23.9375 51.4847 23.9375 52.1094ZM-0.459883 16.7001C-5.76394 23.7215 -8.91406 32.4564 -8.91406 41.9141V45.3125C-12.2819 45.3125 -15.4055 46.371 -17.9766 48.1681V39.6484C-17.9766 28.7014 -10.5435 19.4595 -0.459883 16.7001ZM-17.9766 61.1719C-17.9766 56.1748 -13.9111 52.1094 -8.91406 52.1094V70.2344C-13.9111 70.2344 -17.9766 66.1689 -17.9766 61.1719ZM68.1172 83.1484C68.1172 97.515 56.4291 109.203 42.0625 109.203H23.9375C9.57095 109.203 -2.11719 97.515 -2.11719 83.1484V54.5218L0.292078 55.8771C1.30549 63.3344 7.71064 69.1016 15.4414 69.1016C22.7057 69.1016 28.7989 64.0087 30.349 57.207H35.651C37.2011 64.0087 43.2943 69.1016 50.5586 69.1016C58.2894 69.1016 64.6945 63.3342 65.7079 55.8769L68.1172 54.5218V83.1484ZM74.9141 70.2344V52.1094C79.9111 52.1094 83.9766 56.1748 83.9766 61.1719C83.9766 66.1689 79.9111 70.2344 74.9141 70.2344Z" fill="#83C4BC"/>
</g>
<defs>
<clipPath id="clip0">
<path d="M0 0H91V108H32C14.3269 108 0 93.6731 0 76V0Z" fill="white"/>
</clipPath>
</defs>
</svg>
