<svg width="18" height="18" viewBox="0 0 18 18" fill="none" xmlns="http://www.w3.org/2000/svg">
<path d="M7.34065 18C5.22896 18 3.41895 16.3024 3.41895 14.1055V8.114C3.41895 7.11541 3.82117 6.21668 4.42451 5.51767L9.05011 0.524741C9.45233 0.125306 10.0557 -0.0744113 10.5585 0.0254474L11.3629 0.225165C12.1674 0.424882 12.8713 1.02403 13.1729 1.8229C13.4746 2.62177 13.4746 3.5205 13.0724 4.21951L12.2679 5.71739H14.8824C16.5918 5.71739 17.9996 7.11541 17.9996 8.81301C17.9996 9.01272 17.9996 9.3123 17.8991 9.51202L16.6924 15.1041C16.1896 16.8017 14.6813 18 12.9718 18H7.34065ZM10.3573 2.12248L5.93286 6.91569C5.63119 7.31513 5.43007 7.71456 5.43007 8.21385V14.2054C5.43007 15.204 6.23453 16.1027 7.34065 16.1027H13.0724C13.8768 16.1027 14.6813 15.5035 14.8824 14.7047L16.0891 9.11258C16.0891 9.01272 16.0891 8.91286 16.0891 8.81301C16.0891 8.21385 15.5863 7.71456 14.9829 7.71456H11.564C10.9607 7.71456 10.4579 7.41499 10.1562 6.91569C9.85456 6.4164 9.85456 5.81725 10.1562 5.31796L11.3629 3.22092C11.4635 3.02121 11.4635 2.82149 11.3629 2.62177C11.2624 2.42205 11.0612 2.22234 10.8601 2.22234L10.3573 2.12248Z" fill="white"/>
<path d="M1.00556 6.01685C0.402226 6.01685 0 6.51614 0 7.01543V16.0027C0 16.6019 0.402226 17.0013 1.00556 17.0013C1.6089 17.0013 2.01113 16.6019 2.01113 16.0027V7.01543C2.01113 6.51614 1.6089 6.01685 1.00556 6.01685Z" fill="white"/>
</svg>
