<svg width="469" height="14" viewBox="0 0 469 14" fill="none" xmlns="http://www.w3.org/2000/svg">
<g clip-path="url(#clip0)">
<path d="M209.822 3.93755C212.015 3.41255 216.766 3.23755 216.674 4.02505C216.766 3.15005 216.766 3.15005 219.964 2.53755C219.872 3.06255 222.796 2.88755 224.624 2.80005C223.07 2.45005 220.969 2.45005 216.766 2.36255C212.928 3.67505 204.888 1.75005 201.233 3.06255C204.065 3.41255 206.624 4.28755 209.822 3.93755Z" fill="#FCA311"/>
<path d="M227.273 7.2626L227.821 6.9126C225.629 7.1751 223.344 7.4376 221.06 7.7001C222.522 7.4376 227.09 6.9126 227.273 7.2626Z" fill="#FCA311"/>
<path d="M248.928 5.24992C248.38 5.86242 251.76 6.12492 251.76 6.73742C251.578 5.51242 257.151 6.29992 260.075 6.12492L261.263 5.16242C258.43 4.46242 251.121 4.89992 244.999 5.07492L248.928 5.24992Z" fill="#FCA311"/>
<path d="M254.501 5.7751L256.42 5.1626C254.867 5.3376 251.121 5.5126 254.501 5.7751Z" fill="#FCA311"/>
<path d="M250.298 2.5376C245.456 2.6251 253.222 2.8876 248.379 3.2376C249.933 2.9751 251.851 2.8876 250.298 2.5376Z" fill="#FCA311"/>
<path d="M270.399 4.19995C267.019 4.37495 263.547 4.46245 260.166 4.72495L264.369 5.07495L270.399 4.19995Z" fill="#FCA311"/>
<path d="M270.948 6.21245C269.577 6.21245 267.476 5.86245 269.394 5.51245C273.049 6.29995 275.333 5.16245 278.714 5.86245L275.516 6.21245C275.973 6.99995 282.278 5.42495 282.095 6.82495C286.481 5.86245 278.806 5.59995 284.47 4.89995C279.08 5.16245 275.151 4.81245 270.582 4.63745C271.861 4.89995 272.41 4.89995 274.237 5.07495C271.039 5.07495 266.745 5.51245 262.999 5.68745C265.1 6.56245 267.841 5.68745 270.948 6.21245Z" fill="#FCA311"/>
<path d="M287.212 6.38748C290.684 6.47498 295.983 6.47497 296.897 5.42497C293.242 4.63747 292.602 5.59998 290.958 6.03748C289.861 5.86248 286.481 5.77498 287.851 5.24998C288.399 5.51248 285.658 6.03748 287.212 6.38748Z" fill="#FCA311"/>
<path d="M300.826 6.6501L303.384 5.6876L301.739 5.8626L301.557 5.1626C301.282 5.3376 300.095 6.5626 296.623 6.4751C298.359 7.0001 298.998 6.3876 300.826 6.6501Z" fill="#FCA311"/>
<path d="M301.648 1.9249C304.024 2.3624 305.394 2.0999 308.044 1.8374C304.298 1.9249 298.998 1.9249 297.81 2.2749L298.085 2.0999C298.085 2.0999 294.521 2.6249 292.054 3.2374C295.983 2.6249 302.836 3.6749 301.648 1.9249Z" fill="#FCA311"/>
<path d="M296.897 1.8375L299.638 1.3125L296.897 1.8375Z" fill="#FCA311"/>
<path d="M311.516 6.3876L306.217 6.0376L307.587 6.3876H311.516Z" fill="#FCA311"/>
<path d="M305.212 3.50002C309.506 3.67502 302.927 2.71252 306.856 2.80002C307.953 2.71252 301.009 2.80002 300.643 3.23752C301.74 3.50002 304.755 2.71252 305.212 3.50002Z" fill="#FCA311"/>
<path d="M314.988 6.4749L319.374 5.7749L314.988 6.4749Z" fill="#FCA311"/>
<path d="M325.861 6.9125L326.683 6.3875C330.886 6.825 336.643 6.0375 339.749 7.0875C339.018 6.475 341.485 5.775 337.739 5.6875C337.191 6.0375 335.82 6.0375 336.094 6.475C334.541 6.3875 334.815 5.95 333.719 5.775C330.978 6.3875 326.775 5.95 324.582 6.3875C325.678 6.3 325.952 6.3875 326.683 6.475C322.023 7.35 321.201 5.25 319.191 6.65C320.927 6.125 323.759 7.175 325.861 6.9125Z" fill="#FCA311"/>
<path d="M325.496 3.4999L321.75 3.3249C322.937 2.6249 326.318 3.3249 326.866 2.7124C326.684 2.2749 322.937 2.0999 324.308 1.8374C323.851 3.4124 319.191 1.9249 321.11 3.6749C316.267 3.8499 319.648 2.7124 314.531 2.7999L313.069 3.6749C318.917 3.1499 319.831 3.9374 325.496 3.4999Z" fill="#FCA311"/>
<path d="M339.841 3.58745L341.668 4.02495L340.663 3.32495C348.886 2.97495 353.911 5.68745 358.937 4.98745C365.15 3.58745 370.998 4.72495 377.394 4.11245C380.409 3.23745 374.378 3.93745 374.013 3.58745C374.835 2.27495 377.119 4.02495 378.49 2.88745C378.855 1.92495 371.911 2.36245 369.079 2.01245C366.703 2.27495 366.795 2.53745 366.064 3.14995C365.424 2.71245 362.957 2.71245 362.318 2.18745C357.384 3.23745 354.734 2.01245 349.891 2.97495C348.338 2.36245 353.546 2.62495 351.901 2.62495L349.252 2.79995L349.526 2.88745C345.962 3.76245 339.201 3.32495 336.917 2.88745C338.744 3.06245 340.023 3.58745 337.83 3.84995L336.003 3.06245L331.526 4.37495C335.089 3.67495 339.201 5.07495 339.841 3.58745Z" fill="#FCA311"/>
<path d="M334.724 2.27498C329.242 1.92498 335.363 3.49998 329.333 3.14998C331.435 3.14998 333.536 3.06248 335.729 3.06248L334.724 2.27498Z" fill="#FCA311"/>
<path d="M361.221 3.1499L363.962 3.4999C362.409 2.5374 358.206 4.2874 361.221 3.1499Z" fill="#FCA311"/>
<path d="M371.363 2.44995L369.993 3.58745L372.46 2.88745L371.363 2.44995Z" fill="#FCA311"/>
<path d="M380.683 3.06251C382.693 2.36251 380.226 2.10001 377.851 2.45001C379.952 2.36251 381.14 2.71251 380.683 3.06251Z" fill="#FCA311"/>
<path d="M395.942 4.0249C391.282 4.2874 400.053 4.0249 396.764 5.1624C397.404 4.7249 399.688 4.0249 395.942 4.0249Z" fill="#FCA311"/>
<path d="M411.109 5.86251C409.373 6.12501 408.734 5.95001 408.459 5.77501C409.739 5.68751 410.652 5.77501 411.109 5.86251Z" fill="#FCA311"/>
<path d="M388.724 5.95005C388.541 5.95005 388.449 5.95005 388.358 5.86255L388.724 5.95005Z" fill="#FCA311"/>
<path d="M240.887 7.00007C239.974 7.08757 239.334 7.17507 238.694 7.17507C239.425 7.08757 240.156 7.00007 240.887 7.00007C240.887 6.91257 240.887 7.00007 240.887 7.00007Z" fill="#FCA311"/>
<path d="M238.329 5.68751C242.075 4.81251 242.532 7.00001 248.653 6.30001C246.186 6.56251 243.537 6.73751 240.887 7.00001C237.232 6.12501 243.537 6.30001 238.329 5.68751Z" fill="#FCA311"/>
<path d="M290.044 3.675C290.135 3.675 290.227 3.675 290.227 3.675C290.593 3.5875 290.41 3.5875 290.044 3.675Z" fill="#FCA311"/>
<path d="M70.0258 8.7501V9.0126L66.5537 8.6626L70.0258 8.7501Z" fill="#FCA311"/>
<path d="M70.4825 9.2749L76.3302 9.8874C64.8176 9.8874 53.3964 9.7999 41.8838 9.8874L42.9802 9.5374C42.7061 9.2749 49.833 9.2749 56.9598 9.4499C63.9953 9.3624 71.0307 9.5374 70.4825 9.2749Z" fill="#FCA311"/>
<path d="M72.1272 8.83753C75.5079 7.70003 77.7008 9.27503 81.8124 8.48753C79.0713 9.01253 77.1525 9.62503 74.5028 9.27503L72.1272 8.83753Z" fill="#FCA311"/>
<path d="M88.5738 3.23755C88.8479 3.23755 89.122 3.23755 89.3961 3.23755C89.0306 3.32505 88.7565 3.32505 88.4824 3.41255L88.5738 3.23755Z" fill="#FCA311"/>
<path d="M88.5743 3.4126L88.4828 3.8501C87.9339 3.6751 88.1169 3.5001 88.5743 3.4126Z" fill="#FCA311"/>
<path d="M89.3962 3.23744C90.1272 3.06244 91.0409 2.97494 91.4977 2.79994L90.6754 2.71244C91.7718 2.62494 93.5992 2.27494 94.1475 2.44994C92.046 2.36244 92.046 2.71244 91.9546 3.23744H95.4266C94.7871 4.63744 92.5028 3.32494 89.3962 3.23744Z" fill="#FCA311"/>
<path d="M105.477 3.50006C104.655 3.76256 101.183 3.76256 103.284 4.02506C102.736 4.20006 102.096 4.20006 101.365 4.20006C103.741 4.02506 101.548 3.15006 105.477 3.50006Z" fill="#FCA311"/>
<path d="M101.366 4.19995C101.092 4.19995 100.817 4.28745 100.361 4.28745C100.726 4.28745 101.092 4.28745 101.366 4.19995Z" fill="#FCA311"/>
<path d="M112.604 4.19995H113.975C113.609 4.19995 113.244 4.19995 112.878 4.28745L112.604 4.19995Z" fill="#FCA311"/>
<path d="M0.950195 9.45C3.78266 10.675 6.61512 10.9375 9.26484 11.025C10.6354 11.025 11.9146 11.025 13.2851 10.9375C13.9247 10.9375 14.6557 10.9375 15.2952 10.9375C16.0262 10.9375 16.8485 10.9375 17.7622 10.9375C17.6709 9.975 20.5033 10.85 20.9602 9.8C17.4881 9.7125 24.0667 9.975 30.8281 9.8C37.5895 9.7125 44.5336 9.3625 41.7011 9.1875L39.9651 9.625L41.7011 8.6625C45.0818 8.925 49.5589 9.7125 51.8432 9.1875C52.1173 9.3625 45.0818 9.3625 38.0463 9.3625C31.0108 9.3625 23.9754 9.1875 24.5236 9.275C22.0566 8.3125 63.4471 8.4 64.5436 7.9625L65.0004 8.575C70.1171 7.9625 73.4978 7.0875 77.7922 6.7375L78.7972 7.4375C75.5993 7.175 74.777 7.7 71.4877 7.9625C77.0612 7.875 78.1576 8.3125 82.452 8.225C82.2693 7.2625 78.7972 7.7875 84.188 7.2625C85.7413 7.7 82.1779 8.75 87.0205 8.4875C92.8682 8.75 91.6804 7.35 96.7971 7.175L93.2337 6.825C95.0611 6.7375 98.6245 6.475 100.361 7C98.259 7 92.8682 7.6125 93.0509 8.4875C95.2438 8.225 99.995 8.575 101.822 8.4875L100.726 9.1875C102.827 9.8 103.924 8.8375 106.574 9.275C109.041 8.8375 105.02 8.3125 106.391 8.05C106.939 8.225 111.69 8.575 113.335 8.05C112.147 6.65 107.67 8.575 104.655 7.2625L109.132 7.4375C111.873 5.95 101.914 7.6125 103.376 6.475C106.665 4.9 110.411 7.7 113.518 5.775C111.416 5.425 104.746 5.6 105.569 5.075C107.944 5.5125 109.589 4.55 112.878 4.2875L116.807 4.9C118.452 4.4625 117.081 4.4625 115.802 4.2C121.65 4.9 131.335 3.7625 139.558 4.6375C144.401 4.375 140.198 4.025 142.391 3.5C144.949 4.2875 149.335 3.5 151.984 3.5C152.807 3.5875 154.177 2.7125 153.446 2.3625C151.162 2.5375 148.969 2.7125 146.685 2.975C147.05 2.5375 146.045 1.8375 143.578 1.925C145.223 3.5 134.076 1.1375 133.528 2.975L133.619 2.1L124.939 2.8L125.213 2.8875C125.213 2.625 117.903 3.5875 113.152 3.325C114.523 3.0625 122.563 3.2375 117.812 2.3625C121.376 1.8375 127.68 2.45 134.167 1.925L132.888 1.4C136.269 0.9625 140.198 0.875 144.309 0.9625C146.319 0.9625 148.33 1.05 150.34 1.05C152.35 1.1375 154.269 1.1375 156.187 1.1375L153.995 1.925C156.644 2.1875 160.025 2.8875 162.492 2.1875C159.294 2.1875 160.939 1.75 161.487 1.4875C165.781 1.05 172.177 1.575 178.116 1.225C178.116 1.225 177.842 1.4 178.116 1.4875L184.329 1.05C187.253 1.1375 188.258 1.6625 190.086 2.1875C191.182 2.1 193.832 2.1 192.827 1.6625C192.278 1.6625 191.639 1.575 191.273 1.6625C194.38 0.7875 193.466 1.925 197.395 1.4C194.38 2.1 198.309 2.45 197.943 3.15C202.512 2.8875 198.4 1.8375 198.948 1.4875C204.522 1.925 205.253 2.5375 210.827 2.7125C211.192 2.275 206.898 2.45 206.441 1.925C207.994 2.0125 209.913 2.0125 210.187 1.8375L206.806 1.4875C212.563 2.0125 218.136 2.1875 224.441 1.575L223.892 1.4L227.821 1.225L226.451 2.1C228.552 1.8375 230.837 2.45 231.933 1.6625H231.111L233.76 1.225L231.111 2.275C232.755 2.3625 234.857 1.8375 237.141 1.3125C239.425 0.7875 242.075 0.2625 244.907 0.175C245.547 0.7 243.08 0.875 240.43 1.225C237.781 1.4875 234.857 1.8375 234.583 2.625C236.501 2.7125 239.699 2.8 240.796 2.3625C240.522 2.0125 239.243 2.0125 237.872 2.1C242.806 1.05 250.207 2.0125 253.314 0.6125L249.567 0.2625C253.862 0 256.694 1.4875 258.156 0.6125L254.775 2.1C259.161 1.3125 264.826 1.4 268.846 0.875C268.938 0 262.907 0.875 263.181 0.7875L265.009 0C271.405 0.4375 266.836 0.525 274.511 0.9625L274.603 0.4375C277.161 1.3125 284.014 -0.35 281.455 1.1375L279.354 0.7875L279.537 1.4875L288.399 1.05C287.577 1.575 291.78 1.4 290.684 2.1L293.973 1.4875C295.435 2.45 287.943 2.625 287.577 3.4125C287.669 3.85 289.222 3.7625 289.953 3.7625C286.024 4.4625 284.105 2.8 280.176 2.8L278.257 3.4125L278.349 2.5375C276.704 2.7125 275.334 3.2375 274.785 3.5875C270.948 2.45 266.745 3.7625 260.897 3.5875C265.74 3.0625 257.791 2.8 258.613 2.625C255.963 2.625 249.385 4.2875 247.009 3.4125C245.456 3.0625 250.298 2.7125 246.552 2.625C244.085 2.8 242.44 3.325 244.085 3.675C241.435 3.9375 238.42 4.1125 235.405 4.2875C232.39 4.4625 229.375 4.6375 226.451 4.725L227.821 4.1125C224.167 3.85 220.694 4.6375 218.776 5.3375C218.227 5.075 217.953 5.25 218.502 4.9875C213.842 4.1125 212.563 6.2125 204.796 5.95C205.253 6.7375 208.725 6.825 211.101 6.475L210.461 7.35C217.131 7.35 224.623 7.0875 230.014 6.2125L227.547 7C232.298 7.9625 230.837 5.6875 235.314 6.7375C238.512 6.2125 232.938 6.3875 235.314 5.8625C237.598 5.95 234.857 7.4375 238.694 7.2625C235.131 7.6125 231.385 7.9625 227.547 8.225C223.71 8.4875 219.872 8.575 215.943 8.6625C208.085 8.8375 200.228 8.75 192.735 8.8375C192.461 9.0125 193.284 9.1 194.015 9.1C191.365 9.7125 179.578 9.1875 168.248 8.8375C162.583 8.6625 157.01 8.4875 152.807 8.575C148.604 8.575 145.68 8.925 145.406 9.5375C144.675 9.1875 147.05 8.75 143.853 8.8375C143.578 9.0125 142.756 9.275 143.487 9.5375C135.355 8.4 124.573 9.975 114.797 9.275C115.071 9.625 112.878 9.8875 112.878 10.2375C109.497 9.3625 103.833 10.5 100.635 10.0625L101.64 10.5C98.3504 10.5875 95.0611 10.5875 91.6804 10.675C91.4063 10.85 92.7768 10.85 93.5078 10.9375C91.3149 11.2 90.858 10.675 90.6753 10.2375L86.2896 11.2C73.4064 9.625 57.3253 11.9 42.5234 10.85C40.3306 11.6375 38.4118 11.9875 34.5743 11.9875L36.4017 12.25C32.5641 12.8625 36.2189 11.8125 32.9296 12.1625C30.7367 12.6 32.1987 13.3 35.2139 12.95C37.1326 13.2125 35.9448 13.475 34.5743 13.65C28.5439 13.5625 22.6962 13.3 17.1226 12.6C16.3917 12.5125 15.7521 12.425 15.0211 12.3375C14.4729 12.25 13.9247 12.1625 13.2851 12.1625C12.0059 12.075 10.7268 11.9875 9.44758 11.8125C6.88923 11.4625 3.78266 10.9375 0.950195 9.45Z" fill="#FCA311"/>
<path d="M452.408 7.35002C451.129 7.00002 457.525 7.00002 454.418 6.21252C444.459 4.63752 428.378 5.86252 416.591 4.98752C413.485 4.46252 412.571 4.46252 409.738 4.20002C409.647 4.28752 409.647 4.46252 409.83 4.63752C406.632 4.63752 401.515 5.07502 398.317 4.90002C397.404 5.07502 396.764 5.77502 398.5 5.51252C393.657 6.30002 390.094 4.81252 387.353 5.51252C389.729 5.77502 385.069 6.21252 387.901 6.38752C382.784 6.82502 383.15 4.63752 379.038 4.63752C378.856 4.81252 378.581 4.98752 379.404 4.98752C374.927 4.37502 365.972 6.47502 365.333 4.98752L363.597 5.77502C361.587 5.42502 362.044 5.07502 358.846 4.98752C356.744 5.33752 358.937 5.51252 358.206 5.86252C357.292 5.33752 351.627 5.86252 349.069 5.16252C348.886 4.20002 353.729 6.21252 356.196 5.25002C356.287 5.07502 355.922 4.98752 355.373 4.98752C368.713 4.46252 379.13 6.30002 390.003 4.90002C392.47 5.42502 394.297 4.72502 395.302 3.93752C393.292 3.76252 387.627 3.41252 387.627 4.81252L384.155 4.20002C382.876 4.37502 382.784 2.97502 382.236 2.80002C384.703 2.80002 387.353 1.31252 383.972 1.05002C390.368 0.437519 382.145 4.02502 387.718 3.32502L388.449 2.27502C387.444 2.88752 392.287 2.97502 394.114 2.53752L393.383 2.36252C408.459 1.92502 428.469 1.22502 445.099 0.875019C449.21 3.23752 457.342 1.92523e-05 461.18 2.01252C463.007 1.66252 458.53 1.13752 462.093 0.875019C463.829 0.700019 464.012 1.40002 463.921 1.57502C464.469 1.48752 465.017 1.48752 465.565 1.40002C466.845 3.76252 463.738 5.86252 452.408 7.35002Z" fill="#FCA311"/>
</g>
<defs>
<clipPath id="clip0">
<rect width="467.813" height="14" fill="white" transform="translate(0.950195)"/>
</clipPath>
</defs>
</svg>
