<svg width="115" height="108" viewBox="0 0 115 108" fill="none" xmlns="http://www.w3.org/2000/svg">
<g clip-path="url(#clip0)">
<mask id="path-2-outside-1" maskUnits="userSpaceOnUse" x="-1" y="0" width="116" height="116" fill="black">
<rect fill="white" x="-1" width="116" height="116"/>
<path d="M108.878 54.1223C111.336 50.4057 112.625 46.1217 112.625 41.6176C112.625 35.6372 110.316 29.9815 106.123 25.692C102.618 22.1054 98.1128 19.7959 93.2173 19.0306C93.4308 18.0227 93.5383 16.9916 93.5383 15.9447C93.5386 7.70432 86.7894 1 78.4937 1C70.1977 1 63.4488 7.70432 63.4488 15.9447C63.4488 17.7095 63.7558 19.432 64.3514 21.0548C52.8176 21.7265 43.6406 31.2604 43.6406 42.883C43.6406 48.3029 45.5982 53.3898 49.189 57.3918C47.5874 60.222 46.7482 63.3998 46.7482 66.6823C46.7482 77.1664 55.3345 85.6956 65.8889 85.6956C70.5297 85.6956 74.9483 84.0094 78.375 81.0818V109.819H54.7734V101.629C57.3965 100.447 59.2266 97.8219 59.2266 94.7791C59.2266 90.6325 55.8306 87.2591 51.6562 87.2591H7.57031C3.39595 87.2591 0 90.6325 0 94.7791C0 97.8221 1.83001 100.447 4.45312 101.629V112.031C4.45312 113.253 5.45018 114.243 6.67969 114.243H15.5859C16.8154 114.243 17.8125 113.253 17.8125 112.031V102.299H41.4141V109.819H39.2988C38.0693 109.819 37.0723 110.809 37.0723 112.031C37.0723 113.253 38.0693 114.243 39.2988 114.243H90.6211C91.8506 114.243 92.8477 113.253 92.8477 112.031C92.8477 110.809 91.8506 109.819 90.6211 109.819H82.8281V81.154C86.2018 84.0368 90.5505 85.6958 95.1337 85.6958C105.537 85.6958 114 77.2887 114 66.9548C114 62.1575 112.155 57.5829 108.878 54.1223ZM13.3594 109.819H8.90625V102.299H13.3594V109.819ZM50.3203 109.819H45.8672V102.299H50.3203V109.819ZM51.6562 97.8756H43.6406H15.5859H7.57031C5.85141 97.8756 4.45312 96.4866 4.45312 94.7791C4.45312 93.0716 5.85141 91.6826 7.57031 91.6826H51.6562C53.3752 91.6826 54.7734 93.0716 54.7734 94.7791C54.7734 96.4866 53.3752 97.8756 51.6562 97.8756ZM95.1337 81.2723C90.1032 81.2723 85.4412 78.6551 82.8281 74.4056V64.1021C82.8464 64.0853 82.8653 64.0702 82.8831 64.0528L95.5371 51.4828C96.4066 50.6191 96.4066 49.2186 95.5371 48.3547C94.6676 47.4912 93.2582 47.491 92.3881 48.3547L82.8281 57.8514V37.2147C82.8281 35.9931 81.8311 35.0029 80.6016 35.0029C79.3721 35.0029 78.375 35.9931 78.375 37.2147V42.9542L76.6009 41.1919C75.7316 40.3282 74.3222 40.3282 73.4519 41.1919C72.5824 42.0556 72.5824 43.4561 73.4519 44.3198L78.375 49.21V63.3952L72.2831 57.344C72.2811 57.342 72.2791 57.3398 72.2771 57.3378L66.8962 51.9926C66.0265 51.1289 64.6171 51.1289 63.7472 51.9926C62.8777 52.8563 62.8777 54.2568 63.7472 55.1205L67.0545 58.4057L61.0098 61.6879C59.9308 62.2738 59.5343 63.6177 60.1241 64.6895C60.5284 65.4247 61.2919 65.841 62.0797 65.841C62.4406 65.841 62.8069 65.7536 63.1458 65.5694L70.3358 61.6651L78.375 69.6512V74.3587C75.7031 78.6365 70.9695 81.2721 65.8889 81.2721C57.7902 81.2721 51.2014 74.7272 51.2014 66.6823C51.2014 63.6911 52.1091 60.8141 53.8263 58.3625C54.4533 57.4676 54.3301 56.2521 53.5359 55.4992C50.0266 52.1722 48.0938 47.6916 48.0938 42.883C48.0938 33.2653 55.9707 25.4407 65.6526 25.4407C66.354 25.4407 67.0634 25.4859 67.8209 25.5785C68.7006 25.6856 69.5587 25.2662 70.0091 24.5096C70.4598 23.7527 70.4166 22.8028 69.8987 22.0897C68.5924 20.2904 67.9017 18.1656 67.9017 15.9452C67.9017 10.1437 72.6532 5.42399 78.4935 5.42399C84.3335 5.42399 89.085 10.1437 89.085 15.9452C89.085 17.3864 88.796 18.7835 88.2264 20.0984C87.9352 20.7706 87.9975 21.5421 88.3925 22.1594C88.7875 22.7767 89.4644 23.1602 90.2007 23.1834C100.278 23.5026 108.172 31.5999 108.172 41.6176C108.172 45.7963 106.795 49.7399 104.192 53.0226C103.452 53.9549 103.585 55.3008 104.493 56.0722C107.705 58.8009 109.547 62.7675 109.547 66.9546C109.547 74.8495 103.081 81.2723 95.1337 81.2723Z"/>
</mask>
<path d="M108.878 54.1223C111.336 50.4057 112.625 46.1217 112.625 41.6176C112.625 35.6372 110.316 29.9815 106.123 25.692C102.618 22.1054 98.1128 19.7959 93.2173 19.0306C93.4308 18.0227 93.5383 16.9916 93.5383 15.9447C93.5386 7.70432 86.7894 1 78.4937 1C70.1977 1 63.4488 7.70432 63.4488 15.9447C63.4488 17.7095 63.7558 19.432 64.3514 21.0548C52.8176 21.7265 43.6406 31.2604 43.6406 42.883C43.6406 48.3029 45.5982 53.3898 49.189 57.3918C47.5874 60.222 46.7482 63.3998 46.7482 66.6823C46.7482 77.1664 55.3345 85.6956 65.8889 85.6956C70.5297 85.6956 74.9483 84.0094 78.375 81.0818V109.819H54.7734V101.629C57.3965 100.447 59.2266 97.8219 59.2266 94.7791C59.2266 90.6325 55.8306 87.2591 51.6562 87.2591H7.57031C3.39595 87.2591 0 90.6325 0 94.7791C0 97.8221 1.83001 100.447 4.45312 101.629V112.031C4.45312 113.253 5.45018 114.243 6.67969 114.243H15.5859C16.8154 114.243 17.8125 113.253 17.8125 112.031V102.299H41.4141V109.819H39.2988C38.0693 109.819 37.0723 110.809 37.0723 112.031C37.0723 113.253 38.0693 114.243 39.2988 114.243H90.6211C91.8506 114.243 92.8477 113.253 92.8477 112.031C92.8477 110.809 91.8506 109.819 90.6211 109.819H82.8281V81.154C86.2018 84.0368 90.5505 85.6958 95.1337 85.6958C105.537 85.6958 114 77.2887 114 66.9548C114 62.1575 112.155 57.5829 108.878 54.1223ZM13.3594 109.819H8.90625V102.299H13.3594V109.819ZM50.3203 109.819H45.8672V102.299H50.3203V109.819ZM51.6562 97.8756H43.6406H15.5859H7.57031C5.85141 97.8756 4.45312 96.4866 4.45312 94.7791C4.45312 93.0716 5.85141 91.6826 7.57031 91.6826H51.6562C53.3752 91.6826 54.7734 93.0716 54.7734 94.7791C54.7734 96.4866 53.3752 97.8756 51.6562 97.8756ZM95.1337 81.2723C90.1032 81.2723 85.4412 78.6551 82.8281 74.4056V64.1021C82.8464 64.0853 82.8653 64.0702 82.8831 64.0528L95.5371 51.4828C96.4066 50.6191 96.4066 49.2186 95.5371 48.3547C94.6676 47.4912 93.2582 47.491 92.3881 48.3547L82.8281 57.8514V37.2147C82.8281 35.9931 81.8311 35.0029 80.6016 35.0029C79.3721 35.0029 78.375 35.9931 78.375 37.2147V42.9542L76.6009 41.1919C75.7316 40.3282 74.3222 40.3282 73.4519 41.1919C72.5824 42.0556 72.5824 43.4561 73.4519 44.3198L78.375 49.21V63.3952L72.2831 57.344C72.2811 57.342 72.2791 57.3398 72.2771 57.3378L66.8962 51.9926C66.0265 51.1289 64.6171 51.1289 63.7472 51.9926C62.8777 52.8563 62.8777 54.2568 63.7472 55.1205L67.0545 58.4057L61.0098 61.6879C59.9308 62.2738 59.5343 63.6177 60.1241 64.6895C60.5284 65.4247 61.2919 65.841 62.0797 65.841C62.4406 65.841 62.8069 65.7536 63.1458 65.5694L70.3358 61.6651L78.375 69.6512V74.3587C75.7031 78.6365 70.9695 81.2721 65.8889 81.2721C57.7902 81.2721 51.2014 74.7272 51.2014 66.6823C51.2014 63.6911 52.1091 60.8141 53.8263 58.3625C54.4533 57.4676 54.3301 56.2521 53.5359 55.4992C50.0266 52.1722 48.0938 47.6916 48.0938 42.883C48.0938 33.2653 55.9707 25.4407 65.6526 25.4407C66.354 25.4407 67.0634 25.4859 67.8209 25.5785C68.7006 25.6856 69.5587 25.2662 70.0091 24.5096C70.4598 23.7527 70.4166 22.8028 69.8987 22.0897C68.5924 20.2904 67.9017 18.1656 67.9017 15.9452C67.9017 10.1437 72.6532 5.42399 78.4935 5.42399C84.3335 5.42399 89.085 10.1437 89.085 15.9452C89.085 17.3864 88.796 18.7835 88.2264 20.0984C87.9352 20.7706 87.9975 21.5421 88.3925 22.1594C88.7875 22.7767 89.4644 23.1602 90.2007 23.1834C100.278 23.5026 108.172 31.5999 108.172 41.6176C108.172 45.7963 106.795 49.7399 104.192 53.0226C103.452 53.9549 103.585 55.3008 104.493 56.0722C107.705 58.8009 109.547 62.7675 109.547 66.9546C109.547 74.8495 103.081 81.2723 95.1337 81.2723Z" fill="#AEB4D7"/>
<path d="M108.878 54.1223C111.336 50.4057 112.625 46.1217 112.625 41.6176C112.625 35.6372 110.316 29.9815 106.123 25.692C102.618 22.1054 98.1128 19.7959 93.2173 19.0306C93.4308 18.0227 93.5383 16.9916 93.5383 15.9447C93.5386 7.70432 86.7894 1 78.4937 1C70.1977 1 63.4488 7.70432 63.4488 15.9447C63.4488 17.7095 63.7558 19.432 64.3514 21.0548C52.8176 21.7265 43.6406 31.2604 43.6406 42.883C43.6406 48.3029 45.5982 53.3898 49.189 57.3918C47.5874 60.222 46.7482 63.3998 46.7482 66.6823C46.7482 77.1664 55.3345 85.6956 65.8889 85.6956C70.5297 85.6956 74.9483 84.0094 78.375 81.0818V109.819H54.7734V101.629C57.3965 100.447 59.2266 97.8219 59.2266 94.7791C59.2266 90.6325 55.8306 87.2591 51.6562 87.2591H7.57031C3.39595 87.2591 0 90.6325 0 94.7791C0 97.8221 1.83001 100.447 4.45312 101.629V112.031C4.45312 113.253 5.45018 114.243 6.67969 114.243H15.5859C16.8154 114.243 17.8125 113.253 17.8125 112.031V102.299H41.4141V109.819H39.2988C38.0693 109.819 37.0723 110.809 37.0723 112.031C37.0723 113.253 38.0693 114.243 39.2988 114.243H90.6211C91.8506 114.243 92.8477 113.253 92.8477 112.031C92.8477 110.809 91.8506 109.819 90.6211 109.819H82.8281V81.154C86.2018 84.0368 90.5505 85.6958 95.1337 85.6958C105.537 85.6958 114 77.2887 114 66.9548C114 62.1575 112.155 57.5829 108.878 54.1223ZM13.3594 109.819H8.90625V102.299H13.3594V109.819ZM50.3203 109.819H45.8672V102.299H50.3203V109.819ZM51.6562 97.8756H43.6406H15.5859H7.57031C5.85141 97.8756 4.45312 96.4866 4.45312 94.7791C4.45312 93.0716 5.85141 91.6826 7.57031 91.6826H51.6562C53.3752 91.6826 54.7734 93.0716 54.7734 94.7791C54.7734 96.4866 53.3752 97.8756 51.6562 97.8756ZM95.1337 81.2723C90.1032 81.2723 85.4412 78.6551 82.8281 74.4056V64.1021C82.8464 64.0853 82.8653 64.0702 82.8831 64.0528L95.5371 51.4828C96.4066 50.6191 96.4066 49.2186 95.5371 48.3547C94.6676 47.4912 93.2582 47.491 92.3881 48.3547L82.8281 57.8514V37.2147C82.8281 35.9931 81.8311 35.0029 80.6016 35.0029C79.3721 35.0029 78.375 35.9931 78.375 37.2147V42.9542L76.6009 41.1919C75.7316 40.3282 74.3222 40.3282 73.4519 41.1919C72.5824 42.0556 72.5824 43.4561 73.4519 44.3198L78.375 49.21V63.3952L72.2831 57.344C72.2811 57.342 72.2791 57.3398 72.2771 57.3378L66.8962 51.9926C66.0265 51.1289 64.6171 51.1289 63.7472 51.9926C62.8777 52.8563 62.8777 54.2568 63.7472 55.1205L67.0545 58.4057L61.0098 61.6879C59.9308 62.2738 59.5343 63.6177 60.1241 64.6895C60.5284 65.4247 61.2919 65.841 62.0797 65.841C62.4406 65.841 62.8069 65.7536 63.1458 65.5694L70.3358 61.6651L78.375 69.6512V74.3587C75.7031 78.6365 70.9695 81.2721 65.8889 81.2721C57.7902 81.2721 51.2014 74.7272 51.2014 66.6823C51.2014 63.6911 52.1091 60.8141 53.8263 58.3625C54.4533 57.4676 54.3301 56.2521 53.5359 55.4992C50.0266 52.1722 48.0938 47.6916 48.0938 42.883C48.0938 33.2653 55.9707 25.4407 65.6526 25.4407C66.354 25.4407 67.0634 25.4859 67.8209 25.5785C68.7006 25.6856 69.5587 25.2662 70.0091 24.5096C70.4598 23.7527 70.4166 22.8028 69.8987 22.0897C68.5924 20.2904 67.9017 18.1656 67.9017 15.9452C67.9017 10.1437 72.6532 5.42399 78.4935 5.42399C84.3335 5.42399 89.085 10.1437 89.085 15.9452C89.085 17.3864 88.796 18.7835 88.2264 20.0984C87.9352 20.7706 87.9975 21.5421 88.3925 22.1594C88.7875 22.7767 89.4644 23.1602 90.2007 23.1834C100.278 23.5026 108.172 31.5999 108.172 41.6176C108.172 45.7963 106.795 49.7399 104.192 53.0226C103.452 53.9549 103.585 55.3008 104.493 56.0722C107.705 58.8009 109.547 62.7675 109.547 66.9546C109.547 74.8495 103.081 81.2723 95.1337 81.2723Z" stroke="#AEB4D7" stroke-width="2" mask="url(#path-2-outside-1)"/>
<path d="M23.4476 38.5603L23.4477 38.5603C24.8878 38.9907 25.709 40.5022 25.2737 41.9395L25.2737 41.9396C24.8386 43.3754 23.3174 44.1844 21.8784 43.7544C19.7689 43.1241 17.5395 44.3176 16.9067 46.4064C16.5593 47.5538 15.497 48.336 14.296 48.336C13.0951 48.336 12.0328 47.5538 11.6853 46.4062L23.4476 38.5603ZM23.4476 38.5603C20.1263 37.5679 16.6766 38.4871 14.3003 40.6747M23.4476 38.5603L14.3003 40.6747M14.3003 40.6747C13.7142 40.1344 13.0551 39.6656 12.3337 39.2804C10.1132 38.0947 7.55812 37.8392 5.14466 38.5603L5.14462 38.5603C3.70451 38.9907 2.88334 40.5021 3.31857 41.9394L14.3003 40.6747ZM6.71385 43.7542L6.71376 43.7542C5.27532 44.1836 3.75326 43.3752 3.31858 41.9395L6.71385 43.7542ZM6.71385 43.7542C7.73625 43.4488 8.81453 43.5568 9.75435 44.0586L9.75439 44.0586M6.71385 43.7542L9.75439 44.0586M9.75439 44.0586C10.6943 44.5604 11.3784 45.393 11.6853 46.4061L9.75439 44.0586Z" fill="#AEB4D7" stroke="#AEB4D7"/>
<path d="M37.6515 22.2462L37.6516 22.2463C39.0919 22.6769 39.9128 24.1884 39.4776 25.6257L39.4775 25.6258C39.0422 27.0613 37.5211 27.8704 36.0823 27.4406L36.2254 26.9615L36.0823 27.4406C35.0599 27.1352 33.9819 27.2431 33.0421 27.745C32.102 28.247 31.4177 29.0797 31.1109 30.0927L37.6515 22.2462ZM37.6515 22.2462C35.2385 21.5251 32.6835 21.7806 30.4627 22.9661L30.4627 22.9661M37.6515 22.2462L30.4627 22.9661M30.4627 22.9661C29.7429 23.3505 29.0852 23.8181 28.5001 24.3568M30.4627 22.9661L28.5001 24.3568M17.5227 25.6257L17.5227 25.6256C17.0875 24.1882 17.9083 22.6767 19.3487 22.2463L17.5227 25.6257ZM17.5227 25.6257C17.9576 27.0618 19.4801 27.87 20.918 27.4406L20.918 27.4406M17.5227 25.6257L20.918 27.4406M20.918 27.4406C21.9397 27.1352 23.0182 27.2429 23.9582 27.745L23.9583 27.745M20.918 27.4406L23.9583 27.745M23.9583 27.745C24.8983 28.2468 25.5826 29.0795 25.8894 30.0927M23.9583 27.745L25.8894 30.0927M28.5001 24.3568C27.9151 23.8181 27.2574 23.3505 26.5376 22.9661C24.3169 21.7804 21.7614 21.5249 19.3488 22.2462L28.5001 24.3568ZM25.8894 30.0927C26.2368 31.2402 27.2992 32.0224 28.5001 32.0224M25.8894 30.0927L28.5001 32.0224M28.5001 32.0224C29.7011 32.0224 30.7634 31.2402 31.1108 30.0928L28.5001 32.0224Z" fill="#AEB4D7" stroke="#AEB4D7"/>
</g>
<defs>
<clipPath id="clip0">
<path d="M0 0H115V108H32C14.3269 108 0 93.6731 0 76V0Z" fill="white"/>
</clipPath>
</defs>
</svg>
