<svg width="12" height="12" viewBox="0 0 12 12" fill="none" xmlns="http://www.w3.org/2000/svg">
<g clip-path="url(#clip0)">
<path d="M9.14992 7.50007C8.32492 7.42507 7.87492 8.55007 7.27492 8.85007C6.29992 9.37507 4.49992 7.50007 4.49992 7.50007C4.49992 7.50007 2.62492 5.70007 3.07492 4.72507C3.44992 4.12507 4.57492 3.67507 4.49992 2.85007C4.42492 2.10007 2.77492 -0.599933 1.94992 0.150067C0.149918 1.80007 -8.16706e-05 2.47507 -8.16706e-05 3.82507C-0.0750817 6.15007 2.92492 9.07507 2.92492 9.07507C3.22492 9.37507 5.84992 12.0751 8.17492 12.0001C9.52492 12.0001 10.1999 11.8501 11.8499 10.0501C12.5999 9.22507 9.97492 7.57507 9.14992 7.50007Z" fill="#001B2D"/>
</g>
<defs>
<clipPath id="clip0">
<rect width="12" height="12" fill="white"/>
</clipPath>
</defs>
</svg>
