<svg id="Слой_1" data-name="Слой 1" xmlns="http://www.w3.org/2000/svg" xmlns:xlink="http://www.w3.org/1999/xlink" viewBox="0 0 13.83 13.81"><defs><style>.cls-1{fill:none;}.cls-2{clip-path:url(#clip-path);}.cls-3{fill:#001b2d;}</style><clipPath id="clip-path" transform="translate(-0.11 -0.21)"><rect class="cls-1" width="14" height="14"/></clipPath></defs><g class="cls-2"><path class="cls-3" d="M10.34,14c-2.28,0-5.09-2.51-6.41-3.82C1.83,8.09-1.37,4.23.87,2L2.34.52A1,1,0,0,1,3.77.5l2.1,2.1A1,1,0,0,1,5.85,4L4.59,5.3A9.21,9.21,0,0,0,6.5,7.64a9.47,9.47,0,0,0,2.37,1.9L10.11,8.3a1,1,0,0,1,1.44,0l2.1,2.1a1,1,0,0,1,0,1.43l-1.46,1.47A2.49,2.49,0,0,1,10.34,14ZM3.06,1.21,1.58,2.69c-1.74,1.74,1.9,5.64,3.06,6.8C7,11.88,10.08,14,11.46,12.57l1.46-1.46L10.84,9,9.36,10.47a.52.52,0,0,1-.36.14H9c-.27,0-1.13-.22-3.2-2.25S3.52,5.41,3.54,5.12a.47.47,0,0,1,.14-.33L5.16,3.31Z" transform="translate(-0.11 -0.21)"/></g></svg>