<svg id="Слой_1" data-name="Слой 1" xmlns="http://www.w3.org/2000/svg" viewBox="0 0 11 14"><defs><style>.cls-1{fill:#001b2d;}</style></defs><path class="cls-1" d="M7,8A2.5,2.5,0,1,1,9.5,5.5,2.5,2.5,0,0,1,7,8ZM7,4A1.5,1.5,0,1,0,8.5,5.5,1.5,1.5,0,0,0,7,4Z" transform="translate(-1.5)"/><path class="cls-1" d="M7,14a.51.51,0,0,1-.31-.11C6.48,13.73,1.5,9.75,1.5,5.35A5.43,5.43,0,0,1,7,0a5.43,5.43,0,0,1,5.5,5.35c0,4.4-5,8.38-5.19,8.54A.51.51,0,0,1,7,14ZM7,1A4.43,4.43,0,0,0,2.5,5.35c0,3.33,3.44,6.57,4.5,7.5,1.06-.93,4.5-4.17,4.5-7.5A4.43,4.43,0,0,0,7,1Z" transform="translate(-1.5)"/></svg>