<svg width="99" height="109" viewBox="0 0 99 109" fill="none" xmlns="http://www.w3.org/2000/svg">
<g clip-path="url(#clip0)">
<mask id="path-2-outside-1" maskUnits="userSpaceOnUse" x="-46.6431" y="0" width="141" height="141" fill="black">
<rect fill="white" x="-46.6431" width="141" height="141"/>
<path d="M83.9111 35.5918C74.6407 19.6016 59.6725 8.16392 41.7635 3.3851C23.8552 -1.39371 5.14942 1.05889 -10.9074 10.2905C-26.964 19.5222 -38.4497 34.4285 -43.2481 52.2628C-48.0466 70.0971 -45.584 88.7254 -36.3139 104.715C-27.9984 119.058 -14.7819 129.959 0.900951 135.409C8.33503 137.992 16.0956 139.281 23.8443 139.281C32.2694 139.281 40.6793 137.756 48.6286 134.714C50.0267 134.179 50.7243 132.616 50.1867 131.224C49.6492 129.832 48.08 129.136 46.6824 129.672C25.5228 137.771 2.61607 134.091 -14.498 121.299L-12.0682 108.668L-10.8974 108.29C-6.47318 106.858 -4.04317 102.109 -5.48002 97.7031L-6.33921 95.0701C-6.53801 94.4608 -6.53692 93.8167 -6.33649 93.2079C-5.58281 90.9198 -5.85212 88.4164 -7.07554 86.3389C-8.29895 84.2617 -10.3615 82.8052 -12.7348 82.3431L-18.856 81.152L-30.6665 72.2096C-31.3741 71.6738 -32.3003 71.5174 -33.1459 71.7907L-40.0606 74.0275C-40.2074 71.5647 -40.2095 69.1026 -40.0701 66.6535C-39.7973 66.9066 -39.6196 67.0786 -39.5104 67.1915C-39.375 67.416 -39.2074 67.6218 -39.0111 67.8C-38.4464 68.3121 -37.9349 68.5444 -36.8609 68.5444C-35.874 68.5441 -34.413 68.3483 -32.0006 67.9934C-29.7127 67.6566 -27.4367 67.2771 -27.4142 67.2734C-26.5021 67.1213 -25.7311 66.5163 -25.3682 65.6696C-25.0053 64.8226 -25.1011 63.8501 -25.6221 63.089L-28.9474 58.2318L-24.1844 54.8402C-23.8671 54.6141 -23.6024 54.3227 -23.4085 53.9856L-16.0254 41.15L-13.0494 37.9744C-10.0084 34.7286 -9.14051 29.9797 -10.8388 25.8756C-11.8407 23.4548 -13.5905 21.4395 -15.7791 20.0813C-13.4088 18.2255 -10.8814 16.5121 -8.19535 14.9681C1.65979 9.30177 12.4148 6.55586 23.0567 6.4508L18.214 12.5003L0.25602 18.7697C-0.473255 19.0242 -1.05907 19.5767 -1.3536 20.2881L-6.36877 32.3953C-6.72486 33.2555 -6.61177 34.237 -6.06909 34.9943L1.25569 45.212C0.206657 46.1652 -0.814434 47.5534 -2.03406 49.277C-2.56888 50.033 -3.07387 50.7468 -3.42291 51.1471C-3.72639 51.4955 -4.03014 51.8358 -4.33118 52.1729C-5.90663 53.9378 -7.5355 55.7633 -8.69275 58.2016C-11.2372 63.5651 -10.7233 69.7992 -7.35163 74.471C-4.09144 78.9881 1.28335 81.2844 7.01994 80.6124C7.95452 80.5033 8.82591 80.2886 9.66909 80.0806C11.9942 79.5078 12.7308 79.4505 13.4766 80.1457C13.8395 80.4841 13.8728 80.5481 13.8655 81.6957C13.8603 82.426 13.8546 83.3345 14.1074 84.3719C14.5123 86.0316 15.5589 87.1786 16.3997 88.1001C16.8176 88.5579 17.2499 89.0316 17.3831 89.3495C18.229 91.3681 17.8607 92.486 17.0535 94.9356C16.9844 95.1452 16.9139 95.3591 16.8431 95.5784C15.617 99.3582 17.3261 103.107 18.834 106.415C19.3238 107.489 19.7862 108.503 20.0892 109.399C22.5276 116.604 24.3555 118.255 25.8225 118.919C26.5908 119.267 27.386 119.42 28.1893 119.419C32.0988 119.419 36.1783 115.804 38.0523 113.513C39.2294 112.074 39.5193 110.633 39.7308 109.58C39.8363 109.057 39.9193 108.644 40.0777 108.374C40.3202 107.96 40.6058 107.64 40.9673 107.234C41.6944 106.419 42.5994 105.405 43.1855 103.566C43.6308 102.169 43.9544 101.826 45.0259 100.69C45.2125 100.492 45.4113 100.281 45.6247 100.05C49.2369 96.1356 48.3067 93.1455 47.3214 89.9796C46.4923 87.3158 47.9425 85.6121 51.4486 82.3606C52.9685 80.9511 54.5399 79.4937 55.7546 77.7425C56.2862 76.976 57.9034 74.6444 56.9026 72.3333C55.9217 70.0673 53.4285 69.6865 51.4253 69.3808C50.6342 69.2598 49.4387 69.0772 49.0582 68.8296C47.3803 67.7371 46.3537 65.4571 45.3608 63.2519C45.1631 62.813 44.9681 62.3798 44.7704 61.9592C44.4179 61.209 44.0656 60.3012 43.6926 59.3403C42.706 56.7972 41.5878 53.9146 39.6842 51.9052C37.9731 50.0997 34.7477 49.23 31.9019 48.4625C30.9448 48.2045 30.0414 47.9609 29.4456 47.7419C28.9463 47.5582 28.4044 47.525 27.8875 47.646C26.5024 47.9693 25.6384 48.3255 24.9967 48.8376C24.8272 48.9729 24.3252 49.4172 24.0312 50.1313C23.0383 49.6568 21.673 48.7506 20.8328 48.1929C20.8155 48.1813 20.7978 48.1697 20.7805 48.1581C21.0636 47.0297 20.8073 46.1241 20.5388 45.5586C19.0239 42.3673 13.9949 42.6171 13.0028 42.7011C12.4392 42.7481 11.7262 42.7732 10.972 42.7997C9.78734 42.8415 8.47795 42.8885 7.1824 43.0333L7.24911 42.848C8.23251 40.1194 10.8491 38.2861 13.7603 38.2861H15.3021C16.7994 38.2861 18.0139 37.0767 18.0139 35.5855C18.0139 34.0944 16.7994 32.885 15.3021 32.885H13.7603C9.4383 32.885 5.48056 35.1502 3.26236 38.7155L-0.782703 33.0727L3.19699 23.4662L20.7449 17.3397C21.2261 17.1717 21.6502 16.8719 21.9684 16.4746L29.7691 6.73033C49.7013 8.61847 68.4634 19.7474 79.2146 38.2918C82.0783 43.2313 84.1967 48.4314 85.6051 53.7501L84.4554 54.771C82.9548 56.1044 82.0756 58.0169 82.042 60.0184C82.0417 60.0403 82.0411 60.0619 82.0403 60.0835L80.1674 54.9541C79.8883 54.1887 79.4771 53.4868 78.9461 52.868L75.6051 48.9727C74.3098 47.4626 72.4239 46.597 70.4302 46.597H66.3407C64.8889 46.597 63.5621 47.3889 62.8773 48.6629C62.1925 49.9371 62.2674 51.476 63.0726 52.6784L63.4865 53.2972C60.8438 55.5602 57.7873 57.3711 54.5328 58.5924L48.927 47.8991V45.5135C48.927 44.7756 48.6237 44.0693 48.0876 43.5602L43.0396 38.7612C42.761 38.4965 42.4291 38.2939 42.0659 38.1667L37.5219 36.5765C36.1081 36.0811 34.5605 36.822 34.0642 38.2288C33.5676 39.6362 34.3105 41.1776 35.7235 41.6721L39.7167 43.0698L43.5033 46.6691V48.5619C43.5033 48.997 43.6091 49.4259 43.8114 49.8118L50.8295 63.1989C51.4606 64.4035 52.8931 64.9539 54.1716 64.4829L56.2151 63.7326C60.9626 61.9889 65.363 59.1842 68.9407 55.6218C69.8547 54.7113 69.9968 53.2856 69.2795 52.2142L69.1352 51.9984H70.4302C70.8351 51.9984 71.2183 52.1742 71.4814 52.481L74.8224 56.3764C74.9301 56.502 75.0133 56.644 75.0703 56.7999L78.7574 66.8963C79.0741 67.7638 79.814 68.4099 80.7182 68.6097C80.9135 68.6527 81.1101 68.6737 81.3056 68.6737C82.017 68.6737 82.7094 68.3947 83.2231 67.8827L84.978 66.135C86.0895 65.0279 86.8545 63.6273 87.2201 62.0746C89.9344 83.7364 81.4052 106.145 63.3769 120.236C62.1985 121.156 61.9929 122.854 62.918 124.027C63.8426 125.201 65.5468 125.406 66.7255 124.484C79.7413 114.311 88.683 99.7606 91.9036 83.5128C95.1543 67.1083 92.3161 50.0892 83.9111 35.5918ZM-32.8199 77.3644L-21.6372 85.8317C-21.3066 86.0821 -20.9231 86.2533 -20.5158 86.3324L-13.7757 87.644C-12.9155 87.8114 -12.1978 88.3181 -11.7544 89.0711C-11.311 89.8238 -11.2177 90.6948 -11.4905 91.5242C-12.0519 93.2292 -12.0546 95.0326 -11.4978 96.7387L-10.6387 99.3714C-10.1253 100.945 -10.9937 102.641 -12.5735 103.153L-15.2684 104.025C-16.2087 104.329 -16.9079 105.118 -17.0937 106.085L-19.2628 117.36C-24.0314 113.014 -28.2183 107.877 -31.6169 102.015C-35.7631 94.864 -38.3536 87.2367 -39.4954 79.5242L-32.8199 77.3644ZM-17.0148 34.2894L-20.205 37.6933C-20.3474 37.8453 -20.4718 38.0133 -20.5757 38.1937L-27.8202 50.7892L-34.259 55.3741C-35.4582 56.2281 -35.7528 57.8791 -34.9223 59.0923L-32.5143 62.6099C-33.9023 62.8157 -35.148 62.9853 -35.9762 63.0752C-36.1354 62.9232 -36.302 62.7689 -36.4742 62.6096C-37.1188 62.0133 -38.0146 61.2168 -39.3501 60.053C-37.1476 46.4779 -30.5789 33.689 -20.2481 23.9269C-18.2699 24.5473 -16.6465 26.0168 -15.8534 27.9336C-14.9612 30.0894 -15.4173 32.5844 -17.0148 34.2894ZM5.09681 49.0475C6.30639 48.3696 9.11393 48.2704 11.1637 48.1981C11.9852 48.1692 12.7614 48.1416 13.4546 48.0838C13.8205 48.0533 14.2267 48.059 14.61 48.0887C14.4388 48.5262 14.3832 49.0064 14.4575 49.4828C14.588 50.3209 15.1068 51.0488 15.8575 51.4488C16.3663 51.7199 17.0744 52.1901 17.824 52.6879C19.9435 54.095 22.3462 55.6898 24.6031 55.833C26.6557 55.9656 27.7977 54.8007 28.287 54.3046C28.326 54.2652 28.3629 54.2257 28.402 54.1898C28.6775 53.9662 28.9357 53.6664 29.1277 53.3048C29.5614 53.4282 30.017 53.5511 30.484 53.6772C32.0898 54.1101 35.0788 54.9161 35.7392 55.6129C36.9122 56.8512 37.8264 59.2082 38.6333 61.2875C39.0409 62.3384 39.426 63.3302 39.858 64.2498C40.0435 64.6444 40.2261 65.0509 40.4116 65.4625C41.6629 68.2421 43.0813 71.3929 46.0904 73.3515C47.4548 74.2398 49.1274 74.4951 50.6033 74.7206C50.7817 74.7479 50.9862 74.7792 51.194 74.8132C50.318 76.0302 49.0707 77.1867 47.7529 78.4088C44.3956 81.5223 40.2174 85.3974 42.1416 91.5793C43.0499 94.4984 43.0922 94.8138 41.6317 96.396C41.4327 96.6117 41.2472 96.8084 41.0733 96.9926C39.8225 98.3186 38.8345 99.366 38.0165 101.932C37.779 102.677 37.4711 103.022 36.9122 103.649C36.4652 104.15 35.9084 104.774 35.395 105.649C34.7799 106.698 34.5765 107.707 34.4136 108.519C34.2527 109.317 34.1616 109.717 33.847 110.102C33.1307 110.977 31.7948 112.249 30.4233 113.117C29.1486 113.923 28.4044 114.033 28.1508 114.018C27.8614 113.709 26.8132 112.356 25.2294 107.675C24.8388 106.52 24.297 105.331 23.773 104.182C22.6179 101.649 21.4238 99.029 22.0047 97.2386C22.0733 97.0274 22.1411 96.8211 22.2078 96.6193C23.1359 93.8024 24.0119 91.1423 22.389 87.2694C21.8949 86.0899 21.1081 85.2281 20.4146 84.4675C19.9658 83.9757 19.4573 83.4183 19.3789 83.0974C19.2834 82.7061 19.2864 82.2542 19.2899 81.7311C19.2991 80.3199 19.3132 78.1876 17.1845 76.2025C14.1833 73.405 10.6837 74.2668 8.36757 74.8373C7.65619 75.0123 6.98414 75.1781 6.38857 75.2478C2.57864 75.6923 -0.822842 74.2609 -2.9464 71.3181C-5.16786 68.24 -5.49033 64.0977 -3.78769 60.5084C-2.96349 58.7715 -1.71837 57.376 -0.27663 55.7609C0.0382385 55.4079 0.356098 55.0519 0.673954 54.6873C1.20281 54.0802 1.78482 53.258 2.40019 52.3876C3.13489 51.3491 4.50286 49.4153 5.09681 49.0475Z"/>
</mask>
<path d="M83.9111 35.5918C74.6407 19.6016 59.6725 8.16392 41.7635 3.3851C23.8552 -1.39371 5.14942 1.05889 -10.9074 10.2905C-26.964 19.5222 -38.4497 34.4285 -43.2481 52.2628C-48.0466 70.0971 -45.584 88.7254 -36.3139 104.715C-27.9984 119.058 -14.7819 129.959 0.900951 135.409C8.33503 137.992 16.0956 139.281 23.8443 139.281C32.2694 139.281 40.6793 137.756 48.6286 134.714C50.0267 134.179 50.7243 132.616 50.1867 131.224C49.6492 129.832 48.08 129.136 46.6824 129.672C25.5228 137.771 2.61607 134.091 -14.498 121.299L-12.0682 108.668L-10.8974 108.29C-6.47318 106.858 -4.04317 102.109 -5.48002 97.7031L-6.33921 95.0701C-6.53801 94.4608 -6.53692 93.8167 -6.33649 93.2079C-5.58281 90.9198 -5.85212 88.4164 -7.07554 86.3389C-8.29895 84.2617 -10.3615 82.8052 -12.7348 82.3431L-18.856 81.152L-30.6665 72.2096C-31.3741 71.6738 -32.3003 71.5174 -33.1459 71.7907L-40.0606 74.0275C-40.2074 71.5647 -40.2095 69.1026 -40.0701 66.6535C-39.7973 66.9066 -39.6196 67.0786 -39.5104 67.1915C-39.375 67.416 -39.2074 67.6218 -39.0111 67.8C-38.4464 68.3121 -37.9349 68.5444 -36.8609 68.5444C-35.874 68.5441 -34.413 68.3483 -32.0006 67.9934C-29.7127 67.6566 -27.4367 67.2771 -27.4142 67.2734C-26.5021 67.1213 -25.7311 66.5163 -25.3682 65.6696C-25.0053 64.8226 -25.1011 63.8501 -25.6221 63.089L-28.9474 58.2318L-24.1844 54.8402C-23.8671 54.6141 -23.6024 54.3227 -23.4085 53.9856L-16.0254 41.15L-13.0494 37.9744C-10.0084 34.7286 -9.14051 29.9797 -10.8388 25.8756C-11.8407 23.4548 -13.5905 21.4395 -15.7791 20.0813C-13.4088 18.2255 -10.8814 16.5121 -8.19535 14.9681C1.65979 9.30177 12.4148 6.55586 23.0567 6.4508L18.214 12.5003L0.25602 18.7697C-0.473255 19.0242 -1.05907 19.5767 -1.3536 20.2881L-6.36877 32.3953C-6.72486 33.2555 -6.61177 34.237 -6.06909 34.9943L1.25569 45.212C0.206657 46.1652 -0.814434 47.5534 -2.03406 49.277C-2.56888 50.033 -3.07387 50.7468 -3.42291 51.1471C-3.72639 51.4955 -4.03014 51.8358 -4.33118 52.1729C-5.90663 53.9378 -7.5355 55.7633 -8.69275 58.2016C-11.2372 63.5651 -10.7233 69.7992 -7.35163 74.471C-4.09144 78.9881 1.28335 81.2844 7.01994 80.6124C7.95452 80.5033 8.82591 80.2886 9.66909 80.0806C11.9942 79.5078 12.7308 79.4505 13.4766 80.1457C13.8395 80.4841 13.8728 80.5481 13.8655 81.6957C13.8603 82.426 13.8546 83.3345 14.1074 84.3719C14.5123 86.0316 15.5589 87.1786 16.3997 88.1001C16.8176 88.5579 17.2499 89.0316 17.3831 89.3495C18.229 91.3681 17.8607 92.486 17.0535 94.9356C16.9844 95.1452 16.9139 95.3591 16.8431 95.5784C15.617 99.3582 17.3261 103.107 18.834 106.415C19.3238 107.489 19.7862 108.503 20.0892 109.399C22.5276 116.604 24.3555 118.255 25.8225 118.919C26.5908 119.267 27.386 119.42 28.1893 119.419C32.0988 119.419 36.1783 115.804 38.0523 113.513C39.2294 112.074 39.5193 110.633 39.7308 109.58C39.8363 109.057 39.9193 108.644 40.0777 108.374C40.3202 107.96 40.6058 107.64 40.9673 107.234C41.6944 106.419 42.5994 105.405 43.1855 103.566C43.6308 102.169 43.9544 101.826 45.0259 100.69C45.2125 100.492 45.4113 100.281 45.6247 100.05C49.2369 96.1356 48.3067 93.1455 47.3214 89.9796C46.4923 87.3158 47.9425 85.6121 51.4486 82.3606C52.9685 80.9511 54.5399 79.4937 55.7546 77.7425C56.2862 76.976 57.9034 74.6444 56.9026 72.3333C55.9217 70.0673 53.4285 69.6865 51.4253 69.3808C50.6342 69.2598 49.4387 69.0772 49.0582 68.8296C47.3803 67.7371 46.3537 65.4571 45.3608 63.2519C45.1631 62.813 44.9681 62.3798 44.7704 61.9592C44.4179 61.209 44.0656 60.3012 43.6926 59.3403C42.706 56.7972 41.5878 53.9146 39.6842 51.9052C37.9731 50.0997 34.7477 49.23 31.9019 48.4625C30.9448 48.2045 30.0414 47.9609 29.4456 47.7419C28.9463 47.5582 28.4044 47.525 27.8875 47.646C26.5024 47.9693 25.6384 48.3255 24.9967 48.8376C24.8272 48.9729 24.3252 49.4172 24.0312 50.1313C23.0383 49.6568 21.673 48.7506 20.8328 48.1929C20.8155 48.1813 20.7978 48.1697 20.7805 48.1581C21.0636 47.0297 20.8073 46.1241 20.5388 45.5586C19.0239 42.3673 13.9949 42.6171 13.0028 42.7011C12.4392 42.7481 11.7262 42.7732 10.972 42.7997C9.78734 42.8415 8.47795 42.8885 7.1824 43.0333L7.24911 42.848C8.23251 40.1194 10.8491 38.2861 13.7603 38.2861H15.3021C16.7994 38.2861 18.0139 37.0767 18.0139 35.5855C18.0139 34.0944 16.7994 32.885 15.3021 32.885H13.7603C9.4383 32.885 5.48056 35.1502 3.26236 38.7155L-0.782703 33.0727L3.19699 23.4662L20.7449 17.3397C21.2261 17.1717 21.6502 16.8719 21.9684 16.4746L29.7691 6.73033C49.7013 8.61847 68.4634 19.7474 79.2146 38.2918C82.0783 43.2313 84.1967 48.4314 85.6051 53.7501L84.4554 54.771C82.9548 56.1044 82.0756 58.0169 82.042 60.0184C82.0417 60.0403 82.0411 60.0619 82.0403 60.0835L80.1674 54.9541C79.8883 54.1887 79.4771 53.4868 78.9461 52.868L75.6051 48.9727C74.3098 47.4626 72.4239 46.597 70.4302 46.597H66.3407C64.8889 46.597 63.5621 47.3889 62.8773 48.6629C62.1925 49.9371 62.2674 51.476 63.0726 52.6784L63.4865 53.2972C60.8438 55.5602 57.7873 57.3711 54.5328 58.5924L48.927 47.8991V45.5135C48.927 44.7756 48.6237 44.0693 48.0876 43.5602L43.0396 38.7612C42.761 38.4965 42.4291 38.2939 42.0659 38.1667L37.5219 36.5765C36.1081 36.0811 34.5605 36.822 34.0642 38.2288C33.5676 39.6362 34.3105 41.1776 35.7235 41.6721L39.7167 43.0698L43.5033 46.6691V48.5619C43.5033 48.997 43.6091 49.4259 43.8114 49.8118L50.8295 63.1989C51.4606 64.4035 52.8931 64.9539 54.1716 64.4829L56.2151 63.7326C60.9626 61.9889 65.363 59.1842 68.9407 55.6218C69.8547 54.7113 69.9968 53.2856 69.2795 52.2142L69.1352 51.9984H70.4302C70.8351 51.9984 71.2183 52.1742 71.4814 52.481L74.8224 56.3764C74.9301 56.502 75.0133 56.644 75.0703 56.7999L78.7574 66.8963C79.0741 67.7638 79.814 68.4099 80.7182 68.6097C80.9135 68.6527 81.1101 68.6737 81.3056 68.6737C82.017 68.6737 82.7094 68.3947 83.2231 67.8827L84.978 66.135C86.0895 65.0279 86.8545 63.6273 87.2201 62.0746C89.9344 83.7364 81.4052 106.145 63.3769 120.236C62.1985 121.156 61.9929 122.854 62.918 124.027C63.8426 125.201 65.5468 125.406 66.7255 124.484C79.7413 114.311 88.683 99.7606 91.9036 83.5128C95.1543 67.1083 92.3161 50.0892 83.9111 35.5918ZM-32.8199 77.3644L-21.6372 85.8317C-21.3066 86.0821 -20.9231 86.2533 -20.5158 86.3324L-13.7757 87.644C-12.9155 87.8114 -12.1978 88.3181 -11.7544 89.0711C-11.311 89.8238 -11.2177 90.6948 -11.4905 91.5242C-12.0519 93.2292 -12.0546 95.0326 -11.4978 96.7387L-10.6387 99.3714C-10.1253 100.945 -10.9937 102.641 -12.5735 103.153L-15.2684 104.025C-16.2087 104.329 -16.9079 105.118 -17.0937 106.085L-19.2628 117.36C-24.0314 113.014 -28.2183 107.877 -31.6169 102.015C-35.7631 94.864 -38.3536 87.2367 -39.4954 79.5242L-32.8199 77.3644ZM-17.0148 34.2894L-20.205 37.6933C-20.3474 37.8453 -20.4718 38.0133 -20.5757 38.1937L-27.8202 50.7892L-34.259 55.3741C-35.4582 56.2281 -35.7528 57.8791 -34.9223 59.0923L-32.5143 62.6099C-33.9023 62.8157 -35.148 62.9853 -35.9762 63.0752C-36.1354 62.9232 -36.302 62.7689 -36.4742 62.6096C-37.1188 62.0133 -38.0146 61.2168 -39.3501 60.053C-37.1476 46.4779 -30.5789 33.689 -20.2481 23.9269C-18.2699 24.5473 -16.6465 26.0168 -15.8534 27.9336C-14.9612 30.0894 -15.4173 32.5844 -17.0148 34.2894ZM5.09681 49.0475C6.30639 48.3696 9.11393 48.2704 11.1637 48.1981C11.9852 48.1692 12.7614 48.1416 13.4546 48.0838C13.8205 48.0533 14.2267 48.059 14.61 48.0887C14.4388 48.5262 14.3832 49.0064 14.4575 49.4828C14.588 50.3209 15.1068 51.0488 15.8575 51.4488C16.3663 51.7199 17.0744 52.1901 17.824 52.6879C19.9435 54.095 22.3462 55.6898 24.6031 55.833C26.6557 55.9656 27.7977 54.8007 28.287 54.3046C28.326 54.2652 28.3629 54.2257 28.402 54.1898C28.6775 53.9662 28.9357 53.6664 29.1277 53.3048C29.5614 53.4282 30.017 53.5511 30.484 53.6772C32.0898 54.1101 35.0788 54.9161 35.7392 55.6129C36.9122 56.8512 37.8264 59.2082 38.6333 61.2875C39.0409 62.3384 39.426 63.3302 39.858 64.2498C40.0435 64.6444 40.2261 65.0509 40.4116 65.4625C41.6629 68.2421 43.0813 71.3929 46.0904 73.3515C47.4548 74.2398 49.1274 74.4951 50.6033 74.7206C50.7817 74.7479 50.9862 74.7792 51.194 74.8132C50.318 76.0302 49.0707 77.1867 47.7529 78.4088C44.3956 81.5223 40.2174 85.3974 42.1416 91.5793C43.0499 94.4984 43.0922 94.8138 41.6317 96.396C41.4327 96.6117 41.2472 96.8084 41.0733 96.9926C39.8225 98.3186 38.8345 99.366 38.0165 101.932C37.779 102.677 37.4711 103.022 36.9122 103.649C36.4652 104.15 35.9084 104.774 35.395 105.649C34.7799 106.698 34.5765 107.707 34.4136 108.519C34.2527 109.317 34.1616 109.717 33.847 110.102C33.1307 110.977 31.7948 112.249 30.4233 113.117C29.1486 113.923 28.4044 114.033 28.1508 114.018C27.8614 113.709 26.8132 112.356 25.2294 107.675C24.8388 106.52 24.297 105.331 23.773 104.182C22.6179 101.649 21.4238 99.029 22.0047 97.2386C22.0733 97.0274 22.1411 96.8211 22.2078 96.6193C23.1359 93.8024 24.0119 91.1423 22.389 87.2694C21.8949 86.0899 21.1081 85.2281 20.4146 84.4675C19.9658 83.9757 19.4573 83.4183 19.3789 83.0974C19.2834 82.7061 19.2864 82.2542 19.2899 81.7311C19.2991 80.3199 19.3132 78.1876 17.1845 76.2025C14.1833 73.405 10.6837 74.2668 8.36757 74.8373C7.65619 75.0123 6.98414 75.1781 6.38857 75.2478C2.57864 75.6923 -0.822842 74.2609 -2.9464 71.3181C-5.16786 68.24 -5.49033 64.0977 -3.78769 60.5084C-2.96349 58.7715 -1.71837 57.376 -0.27663 55.7609C0.0382385 55.4079 0.356098 55.0519 0.673954 54.6873C1.20281 54.0802 1.78482 53.258 2.40019 52.3876C3.13489 51.3491 4.50286 49.4153 5.09681 49.0475Z" fill="#9CC2B9"/>
<path d="M83.9111 35.5918C74.6407 19.6016 59.6725 8.16392 41.7635 3.3851C23.8552 -1.39371 5.14942 1.05889 -10.9074 10.2905C-26.964 19.5222 -38.4497 34.4285 -43.2481 52.2628C-48.0466 70.0971 -45.584 88.7254 -36.3139 104.715C-27.9984 119.058 -14.7819 129.959 0.900951 135.409C8.33503 137.992 16.0956 139.281 23.8443 139.281C32.2694 139.281 40.6793 137.756 48.6286 134.714C50.0267 134.179 50.7243 132.616 50.1867 131.224C49.6492 129.832 48.08 129.136 46.6824 129.672C25.5228 137.771 2.61607 134.091 -14.498 121.299L-12.0682 108.668L-10.8974 108.29C-6.47318 106.858 -4.04317 102.109 -5.48002 97.7031L-6.33921 95.0701C-6.53801 94.4608 -6.53692 93.8167 -6.33649 93.2079C-5.58281 90.9198 -5.85212 88.4164 -7.07554 86.3389C-8.29895 84.2617 -10.3615 82.8052 -12.7348 82.3431L-18.856 81.152L-30.6665 72.2096C-31.3741 71.6738 -32.3003 71.5174 -33.1459 71.7907L-40.0606 74.0275C-40.2074 71.5647 -40.2095 69.1026 -40.0701 66.6535C-39.7973 66.9066 -39.6196 67.0786 -39.5104 67.1915C-39.375 67.416 -39.2074 67.6218 -39.0111 67.8C-38.4464 68.3121 -37.9349 68.5444 -36.8609 68.5444C-35.874 68.5441 -34.413 68.3483 -32.0006 67.9934C-29.7127 67.6566 -27.4367 67.2771 -27.4142 67.2734C-26.5021 67.1213 -25.7311 66.5163 -25.3682 65.6696C-25.0053 64.8226 -25.1011 63.8501 -25.6221 63.089L-28.9474 58.2318L-24.1844 54.8402C-23.8671 54.6141 -23.6024 54.3227 -23.4085 53.9856L-16.0254 41.15L-13.0494 37.9744C-10.0084 34.7286 -9.14051 29.9797 -10.8388 25.8756C-11.8407 23.4548 -13.5905 21.4395 -15.7791 20.0813C-13.4088 18.2255 -10.8814 16.5121 -8.19535 14.9681C1.65979 9.30177 12.4148 6.55586 23.0567 6.4508L18.214 12.5003L0.25602 18.7697C-0.473255 19.0242 -1.05907 19.5767 -1.3536 20.2881L-6.36877 32.3953C-6.72486 33.2555 -6.61177 34.237 -6.06909 34.9943L1.25569 45.212C0.206657 46.1652 -0.814434 47.5534 -2.03406 49.277C-2.56888 50.033 -3.07387 50.7468 -3.42291 51.1471C-3.72639 51.4955 -4.03014 51.8358 -4.33118 52.1729C-5.90663 53.9378 -7.5355 55.7633 -8.69275 58.2016C-11.2372 63.5651 -10.7233 69.7992 -7.35163 74.471C-4.09144 78.9881 1.28335 81.2844 7.01994 80.6124C7.95452 80.5033 8.82591 80.2886 9.66909 80.0806C11.9942 79.5078 12.7308 79.4505 13.4766 80.1457C13.8395 80.4841 13.8728 80.5481 13.8655 81.6957C13.8603 82.426 13.8546 83.3345 14.1074 84.3719C14.5123 86.0316 15.5589 87.1786 16.3997 88.1001C16.8176 88.5579 17.2499 89.0316 17.3831 89.3495C18.229 91.3681 17.8607 92.486 17.0535 94.9356C16.9844 95.1452 16.9139 95.3591 16.8431 95.5784C15.617 99.3582 17.3261 103.107 18.834 106.415C19.3238 107.489 19.7862 108.503 20.0892 109.399C22.5276 116.604 24.3555 118.255 25.8225 118.919C26.5908 119.267 27.386 119.42 28.1893 119.419C32.0988 119.419 36.1783 115.804 38.0523 113.513C39.2294 112.074 39.5193 110.633 39.7308 109.58C39.8363 109.057 39.9193 108.644 40.0777 108.374C40.3202 107.96 40.6058 107.64 40.9673 107.234C41.6944 106.419 42.5994 105.405 43.1855 103.566C43.6308 102.169 43.9544 101.826 45.0259 100.69C45.2125 100.492 45.4113 100.281 45.6247 100.05C49.2369 96.1356 48.3067 93.1455 47.3214 89.9796C46.4923 87.3158 47.9425 85.6121 51.4486 82.3606C52.9685 80.9511 54.5399 79.4937 55.7546 77.7425C56.2862 76.976 57.9034 74.6444 56.9026 72.3333C55.9217 70.0673 53.4285 69.6865 51.4253 69.3808C50.6342 69.2598 49.4387 69.0772 49.0582 68.8296C47.3803 67.7371 46.3537 65.4571 45.3608 63.2519C45.1631 62.813 44.9681 62.3798 44.7704 61.9592C44.4179 61.209 44.0656 60.3012 43.6926 59.3403C42.706 56.7972 41.5878 53.9146 39.6842 51.9052C37.9731 50.0997 34.7477 49.23 31.9019 48.4625C30.9448 48.2045 30.0414 47.9609 29.4456 47.7419C28.9463 47.5582 28.4044 47.525 27.8875 47.646C26.5024 47.9693 25.6384 48.3255 24.9967 48.8376C24.8272 48.9729 24.3252 49.4172 24.0312 50.1313C23.0383 49.6568 21.673 48.7506 20.8328 48.1929C20.8155 48.1813 20.7978 48.1697 20.7805 48.1581C21.0636 47.0297 20.8073 46.1241 20.5388 45.5586C19.0239 42.3673 13.9949 42.6171 13.0028 42.7011C12.4392 42.7481 11.7262 42.7732 10.972 42.7997C9.78734 42.8415 8.47795 42.8885 7.1824 43.0333L7.24911 42.848C8.23251 40.1194 10.8491 38.2861 13.7603 38.2861H15.3021C16.7994 38.2861 18.0139 37.0767 18.0139 35.5855C18.0139 34.0944 16.7994 32.885 15.3021 32.885H13.7603C9.4383 32.885 5.48056 35.1502 3.26236 38.7155L-0.782703 33.0727L3.19699 23.4662L20.7449 17.3397C21.2261 17.1717 21.6502 16.8719 21.9684 16.4746L29.7691 6.73033C49.7013 8.61847 68.4634 19.7474 79.2146 38.2918C82.0783 43.2313 84.1967 48.4314 85.6051 53.7501L84.4554 54.771C82.9548 56.1044 82.0756 58.0169 82.042 60.0184C82.0417 60.0403 82.0411 60.0619 82.0403 60.0835L80.1674 54.9541C79.8883 54.1887 79.4771 53.4868 78.9461 52.868L75.6051 48.9727C74.3098 47.4626 72.4239 46.597 70.4302 46.597H66.3407C64.8889 46.597 63.5621 47.3889 62.8773 48.6629C62.1925 49.9371 62.2674 51.476 63.0726 52.6784L63.4865 53.2972C60.8438 55.5602 57.7873 57.3711 54.5328 58.5924L48.927 47.8991V45.5135C48.927 44.7756 48.6237 44.0693 48.0876 43.5602L43.0396 38.7612C42.761 38.4965 42.4291 38.2939 42.0659 38.1667L37.5219 36.5765C36.1081 36.0811 34.5605 36.822 34.0642 38.2288C33.5676 39.6362 34.3105 41.1776 35.7235 41.6721L39.7167 43.0698L43.5033 46.6691V48.5619C43.5033 48.997 43.6091 49.4259 43.8114 49.8118L50.8295 63.1989C51.4606 64.4035 52.8931 64.9539 54.1716 64.4829L56.2151 63.7326C60.9626 61.9889 65.363 59.1842 68.9407 55.6218C69.8547 54.7113 69.9968 53.2856 69.2795 52.2142L69.1352 51.9984H70.4302C70.8351 51.9984 71.2183 52.1742 71.4814 52.481L74.8224 56.3764C74.9301 56.502 75.0133 56.644 75.0703 56.7999L78.7574 66.8963C79.0741 67.7638 79.814 68.4099 80.7182 68.6097C80.9135 68.6527 81.1101 68.6737 81.3056 68.6737C82.017 68.6737 82.7094 68.3947 83.2231 67.8827L84.978 66.135C86.0895 65.0279 86.8545 63.6273 87.2201 62.0746C89.9344 83.7364 81.4052 106.145 63.3769 120.236C62.1985 121.156 61.9929 122.854 62.918 124.027C63.8426 125.201 65.5468 125.406 66.7255 124.484C79.7413 114.311 88.683 99.7606 91.9036 83.5128C95.1543 67.1083 92.3161 50.0892 83.9111 35.5918ZM-32.8199 77.3644L-21.6372 85.8317C-21.3066 86.0821 -20.9231 86.2533 -20.5158 86.3324L-13.7757 87.644C-12.9155 87.8114 -12.1978 88.3181 -11.7544 89.0711C-11.311 89.8238 -11.2177 90.6948 -11.4905 91.5242C-12.0519 93.2292 -12.0546 95.0326 -11.4978 96.7387L-10.6387 99.3714C-10.1253 100.945 -10.9937 102.641 -12.5735 103.153L-15.2684 104.025C-16.2087 104.329 -16.9079 105.118 -17.0937 106.085L-19.2628 117.36C-24.0314 113.014 -28.2183 107.877 -31.6169 102.015C-35.7631 94.864 -38.3536 87.2367 -39.4954 79.5242L-32.8199 77.3644ZM-17.0148 34.2894L-20.205 37.6933C-20.3474 37.8453 -20.4718 38.0133 -20.5757 38.1937L-27.8202 50.7892L-34.259 55.3741C-35.4582 56.2281 -35.7528 57.8791 -34.9223 59.0923L-32.5143 62.6099C-33.9023 62.8157 -35.148 62.9853 -35.9762 63.0752C-36.1354 62.9232 -36.302 62.7689 -36.4742 62.6096C-37.1188 62.0133 -38.0146 61.2168 -39.3501 60.053C-37.1476 46.4779 -30.5789 33.689 -20.2481 23.9269C-18.2699 24.5473 -16.6465 26.0168 -15.8534 27.9336C-14.9612 30.0894 -15.4173 32.5844 -17.0148 34.2894ZM5.09681 49.0475C6.30639 48.3696 9.11393 48.2704 11.1637 48.1981C11.9852 48.1692 12.7614 48.1416 13.4546 48.0838C13.8205 48.0533 14.2267 48.059 14.61 48.0887C14.4388 48.5262 14.3832 49.0064 14.4575 49.4828C14.588 50.3209 15.1068 51.0488 15.8575 51.4488C16.3663 51.7199 17.0744 52.1901 17.824 52.6879C19.9435 54.095 22.3462 55.6898 24.6031 55.833C26.6557 55.9656 27.7977 54.8007 28.287 54.3046C28.326 54.2652 28.3629 54.2257 28.402 54.1898C28.6775 53.9662 28.9357 53.6664 29.1277 53.3048C29.5614 53.4282 30.017 53.5511 30.484 53.6772C32.0898 54.1101 35.0788 54.9161 35.7392 55.6129C36.9122 56.8512 37.8264 59.2082 38.6333 61.2875C39.0409 62.3384 39.426 63.3302 39.858 64.2498C40.0435 64.6444 40.2261 65.0509 40.4116 65.4625C41.6629 68.2421 43.0813 71.3929 46.0904 73.3515C47.4548 74.2398 49.1274 74.4951 50.6033 74.7206C50.7817 74.7479 50.9862 74.7792 51.194 74.8132C50.318 76.0302 49.0707 77.1867 47.7529 78.4088C44.3956 81.5223 40.2174 85.3974 42.1416 91.5793C43.0499 94.4984 43.0922 94.8138 41.6317 96.396C41.4327 96.6117 41.2472 96.8084 41.0733 96.9926C39.8225 98.3186 38.8345 99.366 38.0165 101.932C37.779 102.677 37.4711 103.022 36.9122 103.649C36.4652 104.15 35.9084 104.774 35.395 105.649C34.7799 106.698 34.5765 107.707 34.4136 108.519C34.2527 109.317 34.1616 109.717 33.847 110.102C33.1307 110.977 31.7948 112.249 30.4233 113.117C29.1486 113.923 28.4044 114.033 28.1508 114.018C27.8614 113.709 26.8132 112.356 25.2294 107.675C24.8388 106.52 24.297 105.331 23.773 104.182C22.6179 101.649 21.4238 99.029 22.0047 97.2386C22.0733 97.0274 22.1411 96.8211 22.2078 96.6193C23.1359 93.8024 24.0119 91.1423 22.389 87.2694C21.8949 86.0899 21.1081 85.2281 20.4146 84.4675C19.9658 83.9757 19.4573 83.4183 19.3789 83.0974C19.2834 82.7061 19.2864 82.2542 19.2899 81.7311C19.2991 80.3199 19.3132 78.1876 17.1845 76.2025C14.1833 73.405 10.6837 74.2668 8.36757 74.8373C7.65619 75.0123 6.98414 75.1781 6.38857 75.2478C2.57864 75.6923 -0.822842 74.2609 -2.9464 71.3181C-5.16786 68.24 -5.49033 64.0977 -3.78769 60.5084C-2.96349 58.7715 -1.71837 57.376 -0.27663 55.7609C0.0382385 55.4079 0.356098 55.0519 0.673954 54.6873C1.20281 54.0802 1.78482 53.258 2.40019 52.3876C3.13489 51.3491 4.50286 49.4153 5.09681 49.0475Z" stroke="#9CC2B9" stroke-width="2" mask="url(#path-2-outside-1)"/>
<path d="M69.038 90.2074L67.6245 84.9017C67.3157 83.743 66.3285 82.8893 65.1336 82.7471C63.9373 82.6078 62.777 83.2035 62.2026 84.2571C61.8806 84.8481 61.5906 85.4743 61.3103 86.0796C60.8388 87.0981 60.3511 88.1514 59.8437 88.7328C59.5587 89.0593 58.8265 89.4113 58.119 89.7513C56.4276 90.5641 54.1109 91.6774 53.226 94.4868C52.6766 96.2294 52.8816 97.6081 53.0315 98.6146C53.1611 99.4873 53.191 99.7899 52.9563 100.339L52.9269 100.407C51.9917 102.592 50.2518 106.661 52.6916 110.119C54.4324 112.588 56.2628 113.222 57.6851 113.222C57.9627 113.223 58.2254 113.199 58.4684 113.159C61.4652 112.672 63.7181 109.567 65.5591 103.389L69.0148 91.7906C69.1685 91.2748 69.1767 90.7271 69.038 90.2074ZM59.9265 101.724C58.9881 104.874 58.1578 106.345 57.6786 106.997C57.6234 106.927 57.5634 106.847 57.4994 106.756C56.9379 105.96 57.777 103.998 58.3323 102.7L58.362 102.631C59.2575 100.538 59.0181 98.9309 58.8438 97.757C58.7319 97.0053 58.6919 96.6823 58.8321 96.2385C58.9473 95.8736 59.6356 95.5196 60.6728 95.021C61.1326 94.7998 61.6388 94.5567 62.1497 94.2624L59.9265 101.724Z" fill="#9CC2B9"/>
<path d="M27.9081 24.2533L27.7098 24.1843C26.1799 23.6506 24.5023 24.452 23.9652 25.9767C23.4282 27.5016 24.2341 29.1708 25.7651 29.7057L25.9631 29.7747C26.2848 29.8871 26.6127 29.9403 26.9356 29.9403C28.1484 29.9403 29.2837 29.1863 29.708 27.9824C30.245 26.4574 29.4391 24.7879 27.9081 24.2533Z" fill="#9CC2B9"/>
</g>
<defs>
<clipPath id="clip0">
<path d="M0 0H99V109H32C14.3269 109 0 94.6731 0 77V0Z" fill="white"/>
</clipPath>
</defs>
</svg>
