<svg width="107" height="108" viewBox="0 0 107 108" fill="none" xmlns="http://www.w3.org/2000/svg">
<g clip-path="url(#clip0)">
<path d="M-37.271 139.737C-36.6863 138.979 -36.3377 138.044 -36.1467 137.169L-36.318 137.053L-37.2178 136.442H-36.3161C-36.3078 135.727 -36.2737 135.22 -36.2258 134.887C-36.1999 134.707 -36.1638 134.529 -36.1015 134.395C-36.0841 134.358 -36.0577 134.308 -36.0182 134.258C-35.9809 134.211 -35.9099 134.136 -35.796 134.089C-35.6651 134.035 -35.5188 134.035 -35.3885 134.09C-35.2749 134.139 -35.2047 134.214 -35.1682 134.261C-35.098 134.351 -35.0637 134.45 -35.0465 134.506C-35.0258 134.573 -35.0105 134.645 -34.9986 134.717C-34.9747 134.862 -34.9595 135.039 -34.9535 135.236C-34.9436 135.558 -34.9576 135.957 -35.0075 136.4C-33.373 136.163 -32.147 134.974 -31.2267 134.064L-31.2114 134.049C-30.9723 133.813 -30.7401 133.583 -30.5356 133.418C-30.4303 133.333 -30.3136 133.25 -30.1905 133.189C-30.0711 133.129 -29.9008 133.069 -29.705 133.092C-29.2369 133.147 -29.0719 133.578 -29.0082 133.838C-28.94 134.118 -28.9106 134.497 -28.9063 134.976C-28.7123 134.974 -28.3899 134.906 -27.9395 134.752C-27.0086 134.436 -25.7589 133.84 -24.5188 133.209C-23.9203 132.904 -23.3131 132.586 -22.7552 132.294C-22.1858 131.995 -21.6678 131.723 -21.2628 131.521C-20.9468 131.363 -20.658 131.226 -20.4415 131.144C-20.5164 131.058 -20.5474 130.968 -20.5597 130.929C-20.5781 130.871 -20.5883 130.814 -20.5948 130.765C-20.6079 130.667 -20.6129 130.549 -20.6129 130.416C-20.6129 130.281 -20.6077 130.162 -20.5958 130.06C-20.5853 129.97 -20.5649 129.849 -20.5109 129.739C-20.4832 129.683 -20.4285 129.59 -20.3256 129.517C-20.2765 129.482 -20.2222 129.456 -20.1649 129.439C-20.1564 129.387 -20.1483 129.334 -20.1404 129.28C-20.1362 129.251 -20.1321 129.223 -20.1282 129.194C-20.202 128.671 -20.3299 128.334 -20.4832 128.165L-20.788 127.83L-20.4832 127.494C-20.3871 127.388 -20.2756 127.285 -20.1471 127.215C-20.0159 127.144 -19.8199 127.082 -19.6027 127.152C-19.39 127.22 -19.2703 127.378 -19.2085 127.494C-19.1464 127.611 -19.1139 127.738 -19.0948 127.847C-19.0316 128.208 -19.0607 128.718 -19.1197 129.194C-19.1071 129.301 -19.0969 129.408 -19.0887 129.515C-19.0489 130.036 -19.0523 130.614 -19.081 131.211C-19.0751 131.264 -19.0702 131.316 -19.0666 131.368C-19.0533 131.556 -19.0531 131.776 -19.1047 131.966C-19.1126 131.995 -19.1228 132.028 -19.1364 132.063C-19.14 132.108 -19.1437 132.153 -19.1474 132.198C-19.2139 132.99 -19.3084 133.797 -19.3944 134.531C-19.4103 134.667 -19.4259 134.8 -19.441 134.931C-19.5153 135.572 -19.5754 136.129 -19.6004 136.562C-19.3521 136.439 -19.0118 136.227 -18.5908 135.928C-17.6964 135.295 -16.5494 134.354 -15.3779 133.347V133.002V132.502H-14.8779H-14.4062C-13.182 131.426 -12.0126 130.361 -11.1685 129.592L-11.0899 129.52C-10.6305 129.102 -10.2699 128.774 -10.0636 128.594C-10.0119 128.549 -9.96606 128.51 -9.92896 128.48C-9.91074 128.465 -9.89053 128.449 -9.87053 128.434C-9.86418 128.43 -9.81366 128.391 -9.74867 128.364C-9.72942 128.356 -9.68672 128.339 -9.62984 128.33C-9.58568 128.323 -9.44371 128.306 -9.29462 128.395C-9.22012 128.439 -9.16697 128.495 -9.12968 128.554C-9.01263 128.499 -8.85572 128.396 -8.65948 128.23C-8.16001 127.807 -7.57928 127.13 -7.00198 126.431C-6.90786 126.316 -6.81349 126.201 -6.7196 126.087C-6.25802 125.524 -5.80795 124.975 -5.4548 124.634C-5.34557 124.528 -5.23253 124.429 -5.12025 124.352C-5.0193 124.282 -4.86541 124.191 -4.68169 124.171C-4.58005 124.16 -4.45879 124.169 -4.3375 124.226C-4.235 124.274 -4.15665 124.344 -4.09921 124.42L21.2673 120.061V111.565C6.73971 105.364 -4.01613 92.1904 -6.77767 76.3465C-13.1313 75.2321 -17.9954 69.7814 -17.9954 63.1728C-17.9954 56.8232 -13.5148 51.4963 -7.52534 50.0997V47.6552C-7.52534 18.5762 17.2053 0.602295 40.0899 0.602295C48.4386 0.602295 54.6915 2.65991 60.6711 4.62762L60.7046 4.63865L60.7048 4.63869C66.5553 6.56561 72.0125 8.3611 79.3526 8.3611C86.3673 8.3611 91.0768 7.26897 94.0197 6.18917C95.4914 5.64915 96.5231 5.11158 97.1818 4.71364C97.5113 4.51462 97.7477 4.35037 97.8994 4.23797C98.0086 4.1571 98.0725 4.10436 98.1031 4.07841C99.075 3.12879 100.558 2.91145 101.763 3.55213C102.971 4.19241 103.62 5.54387 103.348 6.8816L103.348 6.88198C103.251 7.35368 101.442 15.9563 95.0418 22.4445C97.158 22.4716 99.5508 22.2318 101.926 21.4498C102.951 21.1081 104.078 21.3241 104.906 22.0067C105.736 22.6911 106.15 23.7537 105.996 24.8149C105.888 25.5655 103.404 41.7098 89.758 50.8159C94.6747 52.8287 98.1751 57.576 98.1751 63.1728C98.1751 69.7814 93.3109 75.2322 86.9573 76.3466C84.1933 92.1903 73.4401 105.364 58.9125 111.565V120.061L99.1724 126.987C110.725 128.952 119.115 138.799 119.115 150.408V153.692C119.115 155.402 117.713 156.778 115.998 156.778H-35.818C-37.4736 156.778 -38.8375 155.496 -38.9305 153.869C-38.9631 153.827 -39.0032 153.775 -39.0499 153.714C-39.1892 153.532 -39.3879 153.271 -39.6263 152.953C-40.1028 152.318 -40.739 151.456 -41.3758 150.547C-42.0114 149.641 -42.6531 148.681 -43.1378 147.853C-43.3798 147.439 -43.5881 147.049 -43.7374 146.71C-43.8781 146.39 -43.9972 146.049 -43.9972 145.758C-43.9972 144.918 -43.6069 143.842 -43.0486 142.987C-42.7653 142.553 -42.4223 142.15 -42.0344 141.85C-41.6482 141.552 -41.1865 141.334 -40.6789 141.334C-39.0402 141.334 -37.9767 140.653 -37.271 139.737ZM-14.03 133.502C-14.0473 133.517 -14.0646 133.532 -14.0819 133.547C-14.1803 133.633 -14.279 133.719 -14.3779 133.805V150.606H112.88V150.408C112.88 141.82 106.676 134.528 98.112 133.068L98.1112 133.068L58.5365 126.259C56.8306 134.801 49.2167 141.261 40.0899 141.261C30.9631 141.261 23.3492 134.801 21.6432 126.262L-6.36951 131.075C-7.87935 132.568 -9.95853 133.502 -12.2604 133.502H-14.03ZM98.6597 28.4335C92.0195 29.179 86.5262 27.4083 86.2202 27.3084L86.2186 27.3079C85.0263 26.9142 84.1849 25.8454 84.0941 24.5987C84.0032 23.3507 84.6836 22.1753 85.811 21.6183C90.0447 19.5267 92.8353 15.855 94.6024 12.5351C91.0195 13.6415 86.0537 14.5336 79.3526 14.5336C71.0038 14.5336 64.751 12.476 58.7714 10.5083L58.7378 10.4973L58.7377 10.4972C52.8871 8.57033 47.4299 6.77484 40.0899 6.77484C20.1729 6.77484 -1.29032 22.4199 -1.29032 47.6552V49.6028C16.8381 47.9575 21.1764 32.0973 21.3615 31.385C21.7443 29.8721 23.2058 28.8889 24.7603 29.0728L24.7612 29.0729C26.3188 29.2603 27.4988 30.5678 27.5023 32.1307C27.5035 32.4977 27.5526 36.8027 29.064 41.3512C30.5037 45.6839 33.2285 50.1262 38.3943 51.7134C37.6932 48.9512 36.9724 45.4075 36.9724 42.4826C36.9724 41.2997 37.6555 40.2267 38.723 39.7101L38.7232 39.71C39.1554 39.5011 39.6225 39.3963 40.0899 39.3963C40.7672 39.3963 41.4429 39.6142 42.0014 40.0428C42.0932 40.1132 47.6679 44.3315 55.6009 47.3468C63.5418 50.3652 73.7542 52.1449 83.196 47.4785L83.1961 47.4784C92.5917 42.8367 96.8604 33.8914 98.6597 28.4335ZM81.4701 68.3453V54.8148C66.7572 59.6133 51.9805 53.271 44.0892 48.7603C44.3974 50.1079 44.7372 51.3635 45.0226 52.351C45.2036 52.9773 45.3624 53.4946 45.4769 53.858C45.5818 54.1905 45.6464 54.3841 45.658 54.4189C45.6594 54.4229 45.66 54.4248 45.6599 54.4246L45.6626 54.4317L45.665 54.439C45.9847 55.3835 45.8209 56.4193 45.2342 57.2241L45.2331 57.2255C44.6465 58.0241 43.7061 58.5002 42.7074 58.5002C36.6326 58.5002 32.1343 56.2706 28.8779 52.9768C25.9021 49.967 23.9803 46.0872 22.8131 42.2541C18.7046 48.1495 11.3131 54.8355 -1.29032 55.7923V68.3453C-1.29032 90.8796 17.2686 109.226 40.0899 109.226C62.9111 109.226 81.4701 90.8796 81.4701 68.3453ZM-11.7604 63.1728C-11.7604 66.0863 -9.99664 68.5894 -7.46304 69.7374C-7.49413 69.2824 -7.52534 68.8091 -7.52534 68.3453V56.6328C-10.025 57.7942 -11.7604 60.2817 -11.7604 63.1728ZM91.9401 63.1728C91.9401 60.2817 90.2047 57.7942 87.7051 56.6328V68.3453C87.7051 68.8091 87.6739 69.2824 87.6428 69.7374C90.1764 68.5894 91.9401 66.0863 91.9401 63.1728ZM40.0899 115.398C35.7278 115.398 31.5152 114.785 27.5023 113.692V122.657C27.5023 129.506 33.1439 135.088 40.0899 135.088C47.0359 135.088 52.6774 129.506 52.6774 122.657V113.692C48.6646 114.785 44.4519 115.398 40.0899 115.398Z" fill="#E1B89A" stroke="#E1B89A"/>
<path d="M58.412 68.8454C55.2503 68.8454 52.6769 66.3114 52.6769 63.1729C52.6769 60.0343 55.2503 57.5003 58.412 57.5003C61.5736 57.5003 64.147 60.0343 64.147 63.1729C64.147 66.3114 61.5736 68.8454 58.412 68.8454Z" fill="#E1B89A" stroke="#E1B89A"/>
<path d="M21.7664 68.8454C18.6047 68.8454 16.0314 66.3114 16.0314 63.1729C16.0314 60.0343 18.6047 57.5003 21.7664 57.5003C24.9281 57.5003 27.5015 60.0343 27.5015 63.1729C27.5015 66.3114 24.9281 68.8454 21.7664 68.8454Z" fill="#E1B89A" stroke="#E1B89A"/>
<path d="M27.2206 80.6619L26.8952 80.2742L27.2869 79.9536L31.3179 76.6535L31.7 76.3407L32.0175 76.7189C34.2293 79.3533 37.0978 80.7767 40.0892 80.7767C43.0805 80.7767 45.949 79.3533 48.1608 76.7189L48.4783 76.3407L48.8605 76.6535L52.8914 79.9536L53.2831 80.2742L52.9577 80.6619C49.5658 84.7032 44.996 86.9492 40.0892 86.9492C35.1823 86.9492 30.6125 84.7032 27.2206 80.6619Z" fill="#E1B89A" stroke="#E1B89A"/>
</g>
<defs>
<clipPath id="clip0">
<path d="M107 0H0V68C0 90.0914 17.9086 108 40 108H107V0Z" fill="white"/>
</clipPath>
</defs>
</svg>
