<svg width="94" height="107" viewBox="0 0 94 107" fill="none" xmlns="http://www.w3.org/2000/svg">
<g clip-path="url(#clip0)">
<path d="M14.8187 24.7148H47.1965C49.0591 24.7148 50.5692 23.2195 50.5692 21.375C50.5692 19.5305 49.0591 18.0352 47.1965 18.0352H14.8187C12.9561 18.0352 11.446 19.5305 11.446 21.375C11.446 23.2195 12.9561 24.7148 14.8187 24.7148Z" fill="#D99D9F"/>
<path d="M14.8187 42.5273H36.4039C38.2665 42.5273 39.7766 41.032 39.7766 39.1875C39.7766 37.343 38.2665 35.8477 36.4039 35.8477H14.8187C12.9561 35.8477 11.446 37.343 11.446 39.1875C11.446 41.032 12.9561 42.5273 14.8187 42.5273Z" fill="#D99D9F"/>
<path d="M90.7192 17.5377C86.6113 13.4696 79.9349 13.4573 75.8113 17.501L64.9593 27.6539V3.33984C64.9593 1.49536 63.4493 0 61.5866 0H-10.3639C-12.2265 0 -13.7366 1.49536 -13.7366 3.33984V18.0352H-17.559C-19.4216 18.0352 -20.9316 19.5305 -20.9316 21.375C-20.9316 23.2195 -19.4216 24.7148 -17.559 24.7148H-13.7366V35.8477H-17.559C-19.4216 35.8477 -20.9316 37.343 -20.9316 39.1875C-20.9316 41.032 -19.4216 42.5273 -17.559 42.5273H-13.7366V53.6602H-17.559C-19.4216 53.6602 -20.9316 55.1555 -20.9316 57C-20.9316 58.8445 -19.4216 60.3398 -17.559 60.3398H-13.7366V71.4727H-17.559C-19.4216 71.4727 -20.9316 72.968 -20.9316 74.8125C-20.9316 76.657 -19.4216 78.1523 -17.559 78.1523H-13.7366V89.2852H-17.559C-19.4216 89.2852 -20.9316 90.7805 -20.9316 92.625C-20.9316 94.4695 -19.4216 95.9648 -17.559 95.9648H-13.7366V110.66C-13.7366 112.505 -12.2265 114 -10.3639 114H61.5866C63.4493 114 64.9593 112.505 64.9593 110.66V58.4575C84.1076 39.4957 77.1016 46.6126 90.7561 32.3005C94.8397 28.2172 94.8273 21.6059 90.7192 17.5377ZM58.214 107.32H-6.99122V95.9648H-3.16885C-1.30623 95.9648 0.203831 94.4695 0.203831 92.625C0.203831 90.7805 -1.30623 89.2852 -3.16885 89.2852H-6.99122V78.1523H-3.16885C-1.30623 78.1523 0.203831 76.657 0.203831 74.8125C0.203831 72.968 -1.30623 71.4727 -3.16885 71.4727H-6.99122V60.3398H-3.16885C-1.30623 60.3398 0.203831 58.8445 0.203831 57C0.203831 55.1555 -1.30623 53.6602 -3.16885 53.6602H-6.99122V42.5273H-3.16885C-1.30623 42.5273 0.203831 41.032 0.203831 39.1875C0.203831 37.343 -1.30623 35.8477 -3.16885 35.8477H-6.99122V24.7148H-3.16885C-1.30623 24.7148 0.203831 23.2195 0.203831 21.375C0.203831 19.5305 -1.30623 18.0352 -3.16885 18.0352H-6.99122V6.67969H58.214V34.3158L22.2926 69.8873C21.4315 70.7399 20.7396 71.7289 20.2362 72.8262L11.7485 91.3171C10.4584 94.1279 13.3964 97.0084 16.2144 95.7395L34.8869 87.3345C35.9952 86.8357 36.9939 86.1506 37.8549 85.2978L58.214 65.137V107.32ZM33.0855 80.5748C32.7986 80.859 32.4658 81.0874 32.0961 81.2537L21.6111 85.9731L26.3772 75.59C26.5452 75.2242 26.7756 74.8947 27.0625 74.6105L66.9832 35.0788L73.0061 41.0431C61.4953 52.4413 66.4246 47.56 33.0855 80.5748ZM85.9495 27.6141C85.9001 27.6628 85.3514 28.2388 77.7067 36.2516L71.8212 30.4233C81.532 21.338 80.4642 22.3393 80.5436 22.2609C82.0341 20.7852 84.459 20.7852 85.9493 22.2609C87.4398 23.7367 87.4398 26.1383 85.9495 27.6141Z" fill="#D99D9F"/>
</g>
<defs>
<clipPath id="clip0">
<path d="M0 0H94V107H32C14.3269 107 0 92.6731 0 75V0Z" fill="white"/>
</clipPath>
</defs>
</svg>
