<svg width="16" height="12" viewBox="0 0 16 12" fill="none" xmlns="http://www.w3.org/2000/svg">
<path fill-rule="evenodd" clip-rule="evenodd" d="M14.4586 1.5201C13.914 0.928594 13.2988 0.887695 13.0265 0.848613C11.0182 0.700839 8.00574 0.667969 8.00574 0.667969H7.98969C7.98969 0.667969 4.98535 0.700839 2.97635 0.848613C2.68883 0.887695 2.08162 0.912187 1.53682 1.50352C1.10844 1.95521 1.00977 2.99865 1.00977 2.99865C1.00977 2.99865 0.910156 4.22127 0.910156 5.42004V6.56437C0.910156 7.77879 1.00971 8.97762 1.00971 8.97762C1.00971 8.97762 1.13281 10.0129 1.56119 10.472C2.106 11.0714 2.81041 11.0481 3.13707 11.1103C4.28158 11.2273 8.01178 11.2661 8.01178 11.2661C8.01178 11.2661 11.0212 11.2505 13.0296 11.1103C13.3018 11.0715 13.9154 11.0715 14.4599 10.472C14.8885 10.0129 14.9932 8.97762 14.9932 8.97762C14.9932 8.97762 15.0898 7.77873 15.0898 6.56437V5.41998C15.0898 4.22121 14.9924 3.00685 14.9924 3.00685C14.9924 3.00685 14.8872 1.97162 14.4586 1.5201ZM6.59375 7.9343V3.73084L8.31166 4.6885L10.4574 5.84062L6.59375 7.9343Z" fill="#001B2D"/>
</svg>
