<svg width="12" height="12" viewBox="0 0 12 12" fill="none" xmlns="http://www.w3.org/2000/svg">
<path d="M10.8 4.2V2.046L6.846 6L10.8 9.954V7.8C10.8 7.64087 10.8632 7.48826 10.9757 7.37574C11.0883 7.26321 11.2409 7.2 11.4 7.2C11.5591 7.2 11.7117 7.26321 11.8243 7.37574C11.9368 7.48826 12 7.64087 12 7.8V11.4C12 11.5591 11.9368 11.7117 11.8243 11.8243C11.7117 11.9368 11.5591 12 11.4 12H7.8C7.64087 12 7.48826 11.9368 7.37574 11.8243C7.26321 11.7117 7.2 11.5591 7.2 11.4C7.2 11.2409 7.26321 11.0883 7.37574 10.9757C7.48826 10.8632 7.64087 10.8 7.8 10.8H9.954L6 6.846L2.046 10.8H4.2C4.35913 10.8 4.51174 10.8632 4.62426 10.9757C4.73679 11.0883 4.8 11.2409 4.8 11.4C4.8 11.5591 4.73679 11.7117 4.62426 11.8243C4.51174 11.9368 4.35913 12 4.2 12H0.6C0.44087 12 0.288258 11.9368 0.175736 11.8243C0.0632141 11.7117 0 11.5591 0 11.4V7.8C0 7.64087 0.0632141 7.48826 0.175736 7.37574C0.288258 7.26321 0.44087 7.2 0.6 7.2C0.75913 7.2 0.911742 7.26321 1.02426 7.37574C1.13679 7.48826 1.2 7.64087 1.2 7.8V9.954L5.154 6L1.2 2.046V4.2C1.2 4.35913 1.13679 4.51174 1.02426 4.62426C0.911742 4.73679 0.75913 4.8 0.6 4.8C0.44087 4.8 0.288258 4.73679 0.175736 4.62426C0.0632141 4.51174 0 4.35913 0 4.2V0.6C0 0.44087 0.0632141 0.288258 0.175736 0.175736C0.288258 0.0632141 0.44087 0 0.6 0H4.2C4.35913 0 4.51174 0.0632141 4.62426 0.175736C4.73679 0.288258 4.8 0.44087 4.8 0.6C4.8 0.75913 4.73679 0.911742 4.62426 1.02426C4.51174 1.13679 4.35913 1.2 4.2 1.2H2.046L6 5.154L9.954 1.2H7.8C7.64087 1.2 7.48826 1.13679 7.37574 1.02426C7.26321 0.911742 7.2 0.75913 7.2 0.6C7.2 0.44087 7.26321 0.288258 7.37574 0.175736C7.48826 0.0632141 7.64087 0 7.8 0H11.4C11.5591 0 11.7117 0.0632141 11.8243 0.175736C11.9368 0.288258 12 0.44087 12 0.6V4.2C12 4.35913 11.9368 4.51174 11.8243 4.62426C11.7117 4.73679 11.5591 4.8 11.4 4.8C11.2409 4.8 11.0883 4.73679 10.9757 4.62426C10.8632 4.51174 10.8 4.35913 10.8 4.2Z" fill="#FCA311"/>
</svg>
